<svg width="18" height="18" viewBox="0 0 18 18" fill="none" xmlns="http://www.w3.org/2000/svg">
<path d="M13.4981 16.588C12.6258 17.4587 11.6734 17.3212 10.7566 16.9088C9.78643 16.4872 8.89634 16.4688 7.87274 16.9088C6.59102 17.4771 5.91455 17.3121 5.14908 16.588C0.80546 11.9778 1.44632 4.95697 6.3774 4.70033C7.57901 4.76449 8.41569 5.37858 9.11886 5.43358C10.1692 5.2136 11.175 4.58118 12.2965 4.66367C13.6405 4.77366 14.6552 5.32359 15.3228 6.31346C12.5457 8.02741 13.2044 11.7944 15.75 12.8485C15.2427 14.2233 14.584 15.589 13.4892 16.5972L13.4981 16.588ZM9.02985 4.64534C8.89634 2.60143 10.5074 0.914979 12.3588 0.75C12.6169 3.1147 10.276 4.87448 9.02985 4.64534Z" fill="#1C2229"/>
</svg>
