<svg width="48" height="48" viewBox="0 0 48 48" fill="none" xmlns="http://www.w3.org/2000/svg">
<path d="M28.1191 40.616C27.9224 40.6157 27.6959 40.6744 27.4936 40.6801L25.3668 40.6817C24.4861 40.6479 23.9367 40.3279 23.0383 40.55C22.4923 40.685 22.0148 40.6878 21.4564 40.6862L19.4607 40.6062C18.415 40.5178 17.3929 40.4456 16.3723 40.177C15.6793 39.9946 15.1164 39.6426 14.4728 39.3505C14.1082 39.1852 13.7292 39.072 13.351 38.9445C13.2896 39.0082 13.2771 39.3334 13.2558 39.4324L13.1158 40.462C12.9721 41.2713 12.2748 41.1769 11.6791 41.151L8.73226 40.8856C7.61438 40.773 6.85777 41.0424 6.86827 39.5626L7.04635 35.5293C7.05765 35.1537 7.1153 34.7798 7.15487 34.4055L7.3433 32.5292L8.27476 26.754L10.2872 18.553L11.4664 14.3945C11.5737 13.9722 11.6777 13.5142 11.7219 13.0812L11.7996 12.3634C11.8909 11.086 12.5252 11.002 13.6329 10.5621L16.8836 9.31483C17.3886 9.14894 17.7198 9.2065 18.0536 8.81946L18.9129 7.73467C19.2131 7.34819 19.4651 6.9431 19.9771 6.84967C20.1693 6.84302 20.3082 6.90306 20.4897 6.93517L21.7264 7.12314C22.9802 7.28153 24.2776 7.27267 25.536 7.16791L27.41 6.93705C27.6245 6.89172 27.8377 6.82291 28.0603 6.85849L28.0897 6.86383C28.5924 6.95069 29.0116 7.65874 29.3013 8.04128L29.9365 8.84346C30.2625 9.22774 30.3334 9.0971 30.7798 9.23678L33.5996 10.2523C34.4224 10.561 35.696 10.7991 36.0936 11.6837C36.2627 12.0599 36.2217 12.5603 36.2764 12.9677C36.4179 14.023 36.7689 15.806 37.1384 16.8313L37.6802 18.5843C37.6911 18.6336 37.6836 18.6099 37.7015 18.6585L38.0506 19.868C38.1742 20.5306 38.4276 21.1762 38.5873 21.8328L39.101 23.9502C39.2195 24.4381 39.379 24.9288 39.4579 25.4238L39.7388 26.7486C39.7512 26.8402 39.7848 26.9228 39.8022 27.0129L40.476 31.0398L40.8247 33.961C40.9396 34.7906 41.0107 35.9046 41.0485 36.769L41.0694 38.3167C41.0749 38.4703 41.1062 38.62 41.1149 38.773L41.1234 39.6878C41.123 40.2788 41.0325 40.6782 40.3481 40.7854L37.5742 41.0739C37.4215 41.0872 37.2705 41.1196 37.1177 41.1296L36.2686 41.1514C35.2102 41.1854 34.9752 41.2135 34.7958 39.927L34.6559 38.9504C33.7039 39.2268 33.0851 39.6397 32.2255 39.9755C31.6327 40.2071 30.9905 40.3226 30.3631 40.4095L28.1191 40.616ZM27.57 8.35558C26.6922 8.53244 25.79 8.63411 24.8948 8.67077L23.604 8.67292C22.8076 8.66946 22.0344 8.60285 21.2436 8.51374C20.9276 8.47816 20.6194 8.40269 20.2997 8.40911C20.3236 8.64292 20.4088 8.87233 20.4871 9.09386L21.3292 11.6954L22.6288 15.1136C22.7308 15.3418 22.7836 15.6925 22.9277 15.8906C22.9883 16.1114 23.095 16.3568 23.1913 16.5668L23.9156 18.461C23.9416 18.5282 23.985 18.5914 24.0227 18.6526C24.112 18.3438 24.238 18.0482 24.3511 17.7477L26.5552 12.0265C26.723 11.6487 26.8779 11.0932 27.0345 10.6641L27.5814 9.02955C27.6571 8.80455 27.8695 8.54692 27.6106 8.35638L27.57 8.35558ZM19.1924 9.69583C18.961 10.0117 18.7129 10.2723 18.4492 10.5592C18.714 11.1356 18.7982 11.7805 19.1131 12.3363L19.1735 12.3195C19.3559 12.0612 19.5686 11.8307 19.7951 11.611L19.1924 9.69583ZM28.835 9.73849L28.2112 11.5639L28.8475 12.3503L29.4952 10.5319C29.3081 10.3399 28.9726 9.97422 28.835 9.73849ZM17.0515 10.7568L13.9246 11.9925C14.0437 12.2483 14.1954 12.4825 14.2968 12.7501C15.0808 14.8198 15.6025 18.3063 15.7512 20.5548C15.7686 20.8179 15.8157 21.078 15.8259 21.3413L15.8279 25.3946C15.8233 25.5998 15.8344 25.805 15.8124 26.0096L15.6609 27.2101C15.4945 28.3134 15.0624 29.3292 14.8053 30.4101C14.3442 32.3493 14.0169 34.3027 13.7271 36.2733L13.6262 37.0584C13.609 37.1752 13.5482 37.3938 13.5814 37.5042C13.9317 37.6552 14.3147 37.7327 14.6691 37.88L15.4561 38.243C15.7375 38.3898 16.0006 38.5439 16.2999 38.6541C17.5499 39.1146 20.1054 39.294 21.394 39.2306L21.3972 39.2292C23.1877 39.2439 24.4851 38.7643 24.4902 36.7551C24.4948 34.9208 24.2164 34.5637 23.5804 32.884C23.2036 31.8888 22.913 30.7897 22.8068 29.7306C22.6344 28.0128 22.89 26.0935 23.8259 24.6087C23.9209 24.458 24.0709 24.2845 24.13 24.1166C24.2465 23.7856 22.744 22.2962 22.5012 22.0196L17.5488 16.01C16.8688 15.1116 16.9323 14.6618 17.8337 13.8256C18.143 13.5386 18.0081 13.6083 17.8648 13.1471L17.3987 11.8187C17.2692 11.4728 17.1262 11.119 17.0515 10.7568ZM30.9391 10.7914L29.9414 13.7152C30.3993 14.0814 31.0998 14.724 30.8433 15.3868L30.8297 15.4229C30.6061 15.9946 29.8081 16.9146 29.4241 17.3976L25.3208 22.3165C25.2098 22.4319 25.0849 22.539 24.9916 22.6693C25.4323 23.3496 25.8952 23.8887 25.4452 24.6739C24.4653 26.3836 24.0127 27.2721 24.1913 29.3994C24.233 29.896 24.3339 30.6664 24.5071 31.1457L25.0663 32.8127C25.2021 33.1359 25.3122 33.4773 25.4259 33.8087L25.7365 34.7345C26.0422 35.8115 26.0408 37.7936 25.4178 38.8207C25.344 38.9424 25.2396 39.0614 25.1876 39.1942C25.8862 39.2776 26.8136 39.1326 27.389 39.2292C28.0594 39.1715 28.7495 39.1486 29.4314 39.0821C30.3598 38.9917 31.3219 38.8525 32.1671 38.4368C32.4795 38.2832 32.7804 38.0996 33.1076 37.9786L34.4585 37.5078C34.0457 34.7639 33.8105 31.9825 32.9694 29.3237C32.4746 27.7594 32.3285 27.3556 32.2332 25.7176L32.1659 20.4562C32.1751 20.2186 32.2233 19.9859 32.2388 19.7484C32.4111 17.0985 32.6876 14.2867 34.1632 12.0022L30.9391 10.7914ZM20.3033 13.1556C19.6758 13.9437 19.491 14.3636 18.6177 15.0729L21.5633 18.7267C21.8544 19.0624 22.125 19.4245 22.4411 19.7379L23.2806 20.6234L20.3033 13.1556ZM27.6908 13.1495C27.428 13.6743 27.2493 14.2378 27.0339 14.7822L25.2397 19.4177C25.0828 19.8288 24.9263 20.2098 24.8536 20.6459L25.6476 19.721L29.3627 15.148C28.6327 14.3617 28.2972 14.1039 27.6908 13.1495ZM34.8951 13.4415L34.891 13.4624C34.8136 13.8328 34.625 14.2074 34.5006 14.5665C33.8474 16.4529 33.708 18.544 33.6224 20.5204L33.5661 24.0018L33.6615 26.2252C33.7137 26.8982 33.8318 27.5903 34.0795 28.2189L34.6969 30.3809L35.3766 34.0252C35.4115 34.157 35.4189 34.3007 35.4361 34.4361L36.1779 39.7286L38.2506 39.5808C38.4211 39.5674 39.638 39.4522 39.6974 39.4093L39.6642 36.9916L39.0763 31.0904L38.0097 25.374L36.6174 19.912L35.5123 16.1683L34.8951 13.4415ZM13.0586 13.5118C13.0252 14.1437 12.8142 14.8196 12.648 15.4285L10.9718 21.3634L10.0583 25.0705L9.23091 29.4055L8.71576 32.876L8.35205 36.9115L8.29449 38.6735C8.28929 38.908 8.25137 39.1683 8.28633 39.3997C8.78654 39.5041 9.3609 39.5566 9.87282 39.5699L11.7857 39.7495L12.9279 32.3909C13.1303 31.3634 13.3423 30.3345 13.6294 29.3268C13.8286 28.6276 14.1152 27.9389 14.2473 27.2228C14.448 26.1345 14.443 25.0053 14.4437 23.9018L14.3415 20.373C14.2026 18.6519 13.9192 16.9453 13.5249 15.2648L13.0586 13.5118Z" fill="black"/>
</svg>
