<svg width="361" height="38" viewBox="0 0 361 38" fill="none" xmlns="http://www.w3.org/2000/svg">
<rect x="1" y="1" width="36" height="36" rx="18" fill="url(#paint0_radial_127_16711)"/>
<rect x="1" y="1" width="36" height="36" rx="18" stroke="black" stroke-width="2"/>
<rect x="44" y="2" width="34" height="34" rx="17" fill="#DA4A12"/>
<rect x="86" y="2" width="34" height="34" rx="17" fill="#2FADA0"/>
<rect x="128" y="2" width="34" height="34" rx="17" fill="#A2BDDA"/>
<path d="M284.248 25.16C283.565 25.16 282.979 25.0747 282.488 24.904C282.008 24.7227 281.608 24.4933 281.288 24.216C280.968 23.928 280.712 23.6293 280.52 23.32C280.328 23.0107 280.184 22.7173 280.088 22.44C279.992 22.152 279.928 21.9227 279.896 21.752C279.875 21.5707 279.864 21.48 279.864 21.48H281.464C281.464 21.48 281.48 21.5547 281.512 21.704C281.544 21.8533 281.608 22.04 281.704 22.264C281.811 22.488 281.965 22.7173 282.168 22.952C282.371 23.176 282.643 23.3627 282.984 23.512C283.325 23.6613 283.757 23.736 284.28 23.736C285.069 23.736 285.693 23.5493 286.152 23.176C286.611 22.792 286.84 22.296 286.84 21.688C286.84 21.1653 286.664 20.76 286.312 20.472C285.971 20.184 285.48 19.96 284.84 19.8L283.272 19.416C282.717 19.2773 282.2 19.0853 281.72 18.84C281.251 18.584 280.872 18.2533 280.584 17.848C280.307 17.432 280.168 16.9147 280.168 16.296C280.168 15.6027 280.339 15.0107 280.68 14.52C281.021 14.0293 281.485 13.656 282.072 13.4C282.659 13.1333 283.325 13 284.072 13C284.797 13 285.4 13.112 285.88 13.336C286.36 13.56 286.744 13.8373 287.032 14.168C287.32 14.488 287.533 14.8133 287.672 15.144C287.811 15.464 287.901 15.736 287.944 15.96C287.987 16.184 288.008 16.296 288.008 16.296H286.472C286.472 16.296 286.451 16.2 286.408 16.008C286.365 15.816 286.264 15.5973 286.104 15.352C285.944 15.096 285.699 14.872 285.368 14.68C285.037 14.488 284.589 14.392 284.024 14.392C283.256 14.392 282.675 14.5733 282.28 14.936C281.896 15.2987 281.704 15.7147 281.704 16.184C281.704 16.6107 281.859 16.9573 282.168 17.224C282.477 17.48 282.904 17.6773 283.448 17.816L285.144 18.232C285.752 18.3813 286.301 18.6 286.792 18.888C287.283 19.1653 287.672 19.528 287.96 19.976C288.248 20.4133 288.392 20.952 288.392 21.592C288.392 22.232 288.232 22.824 287.912 23.368C287.603 23.912 287.139 24.3493 286.52 24.68C285.912 25 285.155 25.16 284.248 25.16ZM291.268 14.904C290.98 14.904 290.74 14.808 290.548 14.616C290.367 14.424 290.276 14.1947 290.276 13.928C290.276 13.6507 290.367 13.416 290.548 13.224C290.74 13.032 290.98 12.936 291.268 12.936C291.546 12.936 291.78 13.032 291.972 13.224C292.164 13.416 292.26 13.6507 292.26 13.928C292.26 14.1947 292.164 14.424 291.972 14.616C291.78 14.808 291.546 14.904 291.268 14.904ZM290.516 25V16.52H292.036V25H290.516ZM294.063 25V23.928L299.023 17.768H294.319V16.52H300.895V17.592L295.919 23.752H300.895V25H294.063ZM306.226 25.16C305.533 25.16 304.93 25.0373 304.418 24.792C303.917 24.536 303.501 24.1947 303.17 23.768C302.85 23.3413 302.61 22.872 302.45 22.36C302.29 21.8373 302.21 21.304 302.21 20.76C302.21 20.2267 302.285 19.6987 302.434 19.176C302.594 18.6533 302.834 18.1787 303.154 17.752C303.485 17.3253 303.895 16.9893 304.386 16.744C304.887 16.488 305.479 16.36 306.162 16.36C306.887 16.36 307.527 16.5253 308.082 16.856C308.637 17.1867 309.074 17.6773 309.394 18.328C309.714 18.9787 309.874 19.7947 309.874 20.776V21.224H303.746C303.778 21.704 303.89 22.1467 304.082 22.552C304.285 22.9467 304.567 23.2667 304.93 23.512C305.293 23.7467 305.725 23.864 306.226 23.864C306.663 23.864 307.015 23.7947 307.282 23.656C307.559 23.5067 307.778 23.336 307.938 23.144C308.098 22.952 308.205 22.7867 308.258 22.648C308.322 22.4987 308.354 22.424 308.354 22.424H309.778C309.778 22.424 309.751 22.52 309.698 22.712C309.645 22.8933 309.549 23.1173 309.41 23.384C309.271 23.6507 309.069 23.9227 308.802 24.2C308.535 24.4667 308.194 24.696 307.778 24.888C307.362 25.0693 306.845 25.16 306.226 25.16ZM303.762 20.04H308.386C308.365 19.4853 308.247 19.0373 308.034 18.696C307.821 18.344 307.549 18.0827 307.218 17.912C306.887 17.7413 306.535 17.656 306.162 17.656C305.49 17.656 304.941 17.8747 304.514 18.312C304.087 18.7387 303.837 19.3147 303.762 20.04ZM313.116 18.44C312.817 18.44 312.567 18.3387 312.364 18.136C312.172 17.9227 312.076 17.6773 312.076 17.4C312.076 17.112 312.172 16.8667 312.364 16.664C312.567 16.4613 312.817 16.36 313.116 16.36C313.415 16.36 313.66 16.4613 313.852 16.664C314.055 16.8667 314.156 17.112 314.156 17.4C314.156 17.688 314.055 17.9333 313.852 18.136C313.66 18.3387 313.415 18.44 313.116 18.44ZM313.116 25.16C312.817 25.16 312.567 25.0587 312.364 24.856C312.172 24.6427 312.076 24.3973 312.076 24.12C312.076 23.832 312.172 23.5867 312.364 23.384C312.567 23.1813 312.817 23.08 313.116 23.08C313.415 23.08 313.66 23.1813 313.852 23.384C314.055 23.5867 314.156 23.832 314.156 24.12C314.156 24.408 314.055 24.6533 313.852 24.856C313.66 25.0587 313.415 25.16 313.116 25.16Z" fill="black"/>
<rect x="326" y="2" width="34" height="34" rx="17" stroke="#CCCDD0" stroke-width="1.5"/>
<path d="M342.36 13C343.16 13 343.853 13.1493 344.44 13.448C345.037 13.736 345.528 14.1307 345.912 14.632C346.296 15.1333 346.579 15.7093 346.76 16.36C346.952 17.0107 347.048 17.6933 347.048 18.408C347.048 19.016 346.973 19.64 346.824 20.28C346.685 20.9093 346.461 21.5173 346.152 22.104C345.853 22.68 345.459 23.2027 344.968 23.672C344.477 24.1307 343.891 24.4933 343.208 24.76C342.525 25.0267 341.736 25.16 340.84 25.16C340.36 25.16 339.939 25.128 339.576 25.064C339.224 25 339.048 24.968 339.048 24.968V23.016C339.048 23.016 339.139 23.032 339.32 23.064C339.512 23.096 339.741 23.128 340.008 23.16C340.285 23.192 340.563 23.208 340.84 23.208C341.523 23.208 342.109 23.096 342.6 22.872C343.091 22.648 343.491 22.3547 343.8 21.992C344.109 21.6187 344.344 21.2187 344.504 20.792C344.675 20.3653 344.771 19.9547 344.792 19.56C344.696 19.72 344.536 19.912 344.312 20.136C344.099 20.36 343.795 20.5573 343.4 20.728C343.016 20.8987 342.525 20.984 341.928 20.984C341.064 20.984 340.344 20.7973 339.768 20.424C339.192 20.0507 338.76 19.5707 338.472 18.984C338.184 18.3867 338.04 17.7627 338.04 17.112C338.04 16.6 338.131 16.104 338.312 15.624C338.493 15.1333 338.76 14.6907 339.112 14.296C339.475 13.9013 339.923 13.5867 340.456 13.352C341 13.1173 341.635 13 342.36 13ZM342.36 14.808C341.752 14.808 341.229 15.0107 340.792 15.416C340.365 15.8107 340.152 16.3547 340.152 17.048C340.152 17.7413 340.365 18.2907 340.792 18.696C341.229 19.0907 341.752 19.288 342.36 19.288C342.968 19.288 343.491 19.0907 343.928 18.696C344.365 18.2907 344.584 17.7413 344.584 17.048C344.584 16.3547 344.365 15.8107 343.928 15.416C343.491 15.0107 342.968 14.808 342.36 14.808Z" fill="black"/>
<defs>
<radialGradient id="paint0_radial_127_16711" cx="0" cy="0" r="1" gradientUnits="userSpaceOnUse" gradientTransform="translate(19 19) rotate(90) scale(17)">
<stop offset="0.8749" stop-color="#9792CD"/>
<stop offset="0.875" stop-color="white"/>
<stop offset="1" stop-color="white"/>
</radialGradient>
</defs>
</svg>
