<svg width="26" height="26" viewBox="0 0 26 26" fill="none" xmlns="http://www.w3.org/2000/svg">
<path d="M22.5058 4.75001L14.377 0.342C13.5122 -0.114 12.496 -0.114 11.6313 0.342L3.50234 4.75001C2.91862 5.07572 2.55115 5.70544 2.55115 6.42201C2.55115 7.13858 2.91862 7.7683 3.50234 8.09401L11.6313 12.502C12.0636 12.7409 12.5393 12.8494 13.0149 12.8494C13.4906 12.8494 13.9662 12.7409 14.3985 12.502L22.5275 8.09401C23.1112 7.7683 23.4787 7.13858 23.4787 6.42201C23.4571 5.70544 23.0895 5.07572 22.5058 4.75001Z" fill="#61AD4E"/>
<path d="M10.2692 14.0003L2.70243 10.2003C2.1187 9.91804 1.44851 9.93976 0.886404 10.2872C0.324299 10.6346 0 11.2209 0 11.8723V19.0598C0 20.2975 0.691858 21.4266 1.79445 21.9695L9.36124 25.7695C9.62068 25.8998 9.90169 25.9649 10.2044 25.9649C10.5503 25.9649 10.8746 25.8781 11.1773 25.6826C11.7394 25.3352 12.0637 24.7489 12.0637 24.0975V16.9101C12.0637 15.6723 11.3934 14.5649 10.2692 14.0003Z" fill="#457B37"/>
<path d="M25.0786 10.2872C24.5165 9.93976 23.8463 9.91804 23.2625 10.2003L15.6957 14.0003C14.5932 14.5649 13.9014 15.6723 13.9014 16.9101V24.0975C13.9014 24.7489 14.2256 25.3352 14.7877 25.6826C15.0904 25.8781 15.4147 25.9649 15.7606 25.9649C16.0417 25.9649 16.3227 25.8998 16.6038 25.7695L24.1706 21.9695C25.2732 21.4049 25.965 20.2975 25.965 19.0598V11.8723C25.965 11.2209 25.6407 10.6346 25.0786 10.2872Z" fill="#355F2B"/>
</svg>
