<svg width="24" height="24" viewBox="0 0 24 24" fill="none" xmlns="http://www.w3.org/2000/svg">
<g clip-path="url(#clip0_2073_968)">
<path d="M19.24 5.58006H18.84L15.46 2.20006C15.19 1.93006 14.75 1.93006 14.47 2.20006C14.2 2.47006 14.2 2.91006 14.47 3.19006L16.86 5.58006H7.14L9.53 3.19006C9.8 2.92006 9.8 2.48006 9.53 2.20006C9.26 1.93006 8.82 1.93006 8.54 2.20006L5.17 5.58006H4.77C3.87 5.58006 2 5.58006 2 8.14006C2 9.11006 2.2 9.75006 2.62 10.1701C2.86 10.4201 3.15 10.5501 3.46 10.6201C3.75 10.6901 4.06 10.7001 4.36 10.7001H19.64C19.95 10.7001 20.24 10.6801 20.52 10.6201C21.36 10.4201 22 9.82006 22 8.14006C22 5.58006 20.13 5.58006 19.24 5.58006Z" fill="white"/>
<path d="M19.05 12.0001H4.87C4.25 12.0001 3.78 12.5501 3.88 13.1601L4.72 18.3001C5 20.0201 5.75 22.0001 9.08 22.0001H14.69C18.06 22.0001 18.66 20.3101 19.02 18.4201L20.03 13.1901C20.15 12.5701 19.68 12.0001 19.05 12.0001ZM10.61 18.4501C10.61 18.8401 10.3 19.1501 9.92 19.1501C9.53 19.1501 9.22 18.8401 9.22 18.4501V15.1501C9.22 14.7701 9.53 14.4501 9.92 14.4501C10.3 14.4501 10.61 14.7701 10.61 15.1501V18.4501ZM14.89 18.4501C14.89 18.8401 14.58 19.1501 14.19 19.1501C13.81 19.1501 13.49 18.8401 13.49 18.4501V15.1501C13.49 14.7701 13.81 14.4501 14.19 14.4501C14.58 14.4501 14.89 14.7701 14.89 15.1501V18.4501Z" fill="white"/>
</g>
<defs>
<clipPath id="clip0_2073_968">
<rect width="24" height="24" fill="white"/>
</clipPath>
</defs>
</svg>
