<?xml version="1.0" encoding="UTF-8"?>
<svg version="1.1" xmlns="http://www.w3.org/2000/svg" width="1400" height="1001">
<path d="M0 0 C462 0 924 0 1400 0 C1400 330.33 1400 660.66 1400 1001 C938 1001 476 1001 0 1001 C0 670.67 0 340.34 0 0 Z " fill="#CBCBCB" transform="translate(0,0)"/>
<path d="M0 0 C3.4375 1.9375 3.4375 1.9375 6 4 C6.86625 4.5775 7.7325 5.155 8.625 5.75 C14.03020593 10.87072141 15.86863622 17.37590501 16.1328125 24.6640625 C16.13023437 25.97117187 16.12765625 27.27828125 16.125 28.625 C16.12886719 30.59339844 16.12886719 30.59339844 16.1328125 32.6015625 C16 36 16 36 15 39 C14.34 39 13.68 39 13 39 C13 39.804375 13 40.60875 13 41.4375 C11.3265451 47.39918309 7.09916178 51.72466603 2.1484375 55.359375 C-9.46130234 61.78178428 -23.13054671 61.65480584 -36 61 C-36.99 60.67 -37.98 60.34 -39 60 C-39 39.54 -39 19.08 -39 -2 C-28.05366457 -5.64877848 -10.67695225 -4.44085625 0 0 Z " fill="#979797" transform="translate(428,462)"/>
<path d="M0 0 C6.27 0 12.54 0 19 0 C19.99 2.97 20.98 5.94 22 9 C22.66 10.32 23.32 11.64 24 13 C24.71781046 15.74786818 25.38336478 18.47995897 26 21.25 C26.33277039 22.71366977 26.66610187 24.17721209 27 25.640625 C27.24387451 26.72053711 27.24387451 26.72053711 27.49267578 27.82226562 C28.00242472 30.01040832 28.55544784 32.1840643 29.1171875 34.359375 C29.86443748 37.44095458 30.19614098 39.86174438 30 43 C30.66 43 31.32 43 32 43 C32.061875 41.700625 32.12375 40.40125 32.1875 39.0625 C32.69095884 33.95494657 33.92759587 29.21661439 35.375 24.3125 C35.58406982 23.60037354 35.79313965 22.88824707 36.00854492 22.15454102 C37.02378917 18.81674639 38.13786906 15.68472074 39.5390625 12.48046875 C41.37935287 8.34307024 41.37935287 8.34307024 43 1 C49.27 1 55.54 1 62 1 C62.75965874 4.03863497 63.16166893 6.32342554 63.29711914 9.37866211 C63.3570681 10.66666969 63.3570681 10.66666969 63.41822815 11.98069763 C63.45681442 12.90359085 63.4954007 13.82648407 63.53515625 14.77734375 C63.59962196 16.22083946 63.59962196 16.22083946 63.66539001 17.6934967 C63.7555446 19.73348509 63.84367353 21.77356385 63.92993164 23.8137207 C64.06069416 26.89494794 64.19876141 29.97578114 64.33789062 33.05664062 C64.77843768 43.04815053 65.11586051 52.99737586 65 63 C60.38 63 55.76 63 51 63 C50.34 48.48 49.68 33.96 49 19 C46.8300381 26.16352208 46.8300381 26.16352208 44.6628418 33.32788086 C43.06456088 38.59173879 41.40459522 43.82479403 39.64526367 49.03686523 C38.77377363 51.68826569 38.02939195 54.36562076 37.3125 57.0625 C36.879375 58.691875 36.44625 60.32125 36 62 C32.04 62 28.08 62 24 62 C22.70756464 57.8803623 21.73747375 54.33168317 22 50 C21.34 50 20.68 50 20 50 C19.82984375 49.2471875 19.6596875 48.494375 19.484375 47.71875 C18.34757091 42.73616187 17.21265794 37.76225821 15.91015625 32.8203125 C15.72807617 32.12228516 15.54599609 31.42425781 15.35839844 30.70507812 C15.0028574 29.3503332 14.64055901 27.99733794 14.27050781 26.64648438 C13.14696228 22.3406549 12.83363212 18.44030128 13 14 C12.34 14 11.68 14 11 14 C11.00523682 14.84481934 11.01047363 15.68963867 11.01586914 16.56005859 C11.18272378 47.60347073 11.18272378 47.60347073 10 63 C5.71 63 1.42 63 -3 63 C-3.23661346 49.05952347 -2.49773395 35.27631336 -1.5 21.375 C-1.35490251 19.28910181 -1.21036803 17.20316438 -1.06640625 15.1171875 C-0.71843106 10.07754688 -0.35900662 5.03891437 0 0 Z " fill="#979797" transform="translate(597,459)"/>
<path d="M0 0 C6.27 0 12.54 0 19 0 C22.27516034 10.210794 25.27263375 20.44845204 28.03173828 30.81103516 C28.2739209 31.71644043 28.51610352 32.6218457 28.765625 33.5546875 C28.97993164 34.36405762 29.19423828 35.17342773 29.41503906 36.00732422 C29.95017953 38.04800354 29.95017953 38.04800354 31 40 C32.20661794 36.03539818 33.18764268 32.13945535 33.9375 28.0625 C34.66299336 24.31130565 35.70471244 20.91368811 37.13671875 17.359375 C39.08867203 12.02462487 40.47573589 6.46632647 42 1 C48.6 1 55.2 1 62 1 C62.39225174 8.49312095 62.78362422 15.98628684 63.17345428 23.47953415 C63.35450793 26.95904129 63.53594496 30.43852755 63.71826172 33.91796875 C63.92790307 37.9192117 64.13587048 41.92054013 64.34375 45.921875 C64.40937134 47.16990906 64.47499268 48.41794312 64.54260254 49.70379639 C64.60266479 50.86469788 64.66272705 52.02559937 64.72460938 53.22167969 C64.77790405 54.24316101 64.83119873 55.26464233 64.8861084 56.31707764 C64.98060166 58.54303715 65 60.77203574 65 63 C60.38 63 55.76 63 51 63 C50.34 47.49 49.68 31.98 49 16 C46.50619039 24.10488124 44.04181866 32.16583493 41.81640625 40.33984375 C41.50799805 41.4700293 41.50799805 41.4700293 41.19335938 42.62304688 C40.77404709 44.16139069 40.35736324 45.70045345 39.94335938 47.24023438 C38.56050324 52.28485908 36.90171687 57.126504 35 62 C31.04 62 27.08 62 23 62 C22.74605469 60.87722656 22.49210938 59.75445313 22.23046875 58.59765625 C21.88304295 57.08588452 21.53537356 55.57416876 21.1875 54.0625 C21.02185547 53.32708984 20.85621094 52.59167969 20.68554688 51.83398438 C19.79997456 48.00764363 18.79747964 44.30206763 17.5 40.59375 C15.79370641 35.62620346 14.78434321 30.59167234 13.8125 25.4375 C13.63525391 24.52419922 13.45800781 23.61089844 13.27539062 22.66992188 C12.84488641 20.44758929 12.41985482 18.22436453 12 16 C11.94465088 17.13953125 11.88930176 18.2790625 11.83227539 19.453125 C11.6247091 23.70995156 11.41315471 27.96657242 11.20043945 32.22314453 C11.10919394 34.06000545 11.01900766 35.89691932 10.92993164 37.73388672 C10.80117628 40.38524005 10.66852191 43.03637504 10.53515625 45.6875 C10.49656998 46.49928711 10.4579837 47.31107422 10.41822815 48.14746094 C10.16244485 53.14079432 9.67627583 58.04559835 9 63 C4.71 63 0.42 63 -4 63 C-3.51371223 47.13166238 -2.66411105 31.36298842 -1.22753906 15.55224609 C-0.76572609 10.37221086 -0.38894686 5.18595818 0 0 Z " fill="#979797" transform="translate(519,459)"/>
<path d="M0 0 C6.6 0 13.2 0 20 0 C20.40992188 1.46953125 20.81984375 2.9390625 21.2421875 4.453125 C21.7862475 6.38547604 22.33052996 8.31776446 22.875 10.25 C23.14441406 11.21808594 23.41382813 12.18617188 23.69140625 13.18359375 C23.95566406 14.11816406 24.21992187 15.05273438 24.4921875 16.015625 C24.85352783 17.30388184 24.85352783 17.30388184 25.22216797 18.61816406 C25.93206087 20.99383779 25.93206087 20.99383779 27.04101562 23.06835938 C28.6264357 26.26180226 29.02155916 29.76482124 29.625 33.25 C29.82609375 34.36761719 29.82609375 34.36761719 30.03125 35.5078125 C30.35966676 37.337563 30.6805798 39.16865754 31 41 C31.16604736 40.38068604 31.33209473 39.76137207 31.50317383 39.12329102 C32.27016956 36.26893888 33.04130976 33.41572159 33.8125 30.5625 C34.07353516 29.58861328 34.33457031 28.61472656 34.60351562 27.61132812 C36.03397685 22.33098362 37.5609501 17.12067918 39.3581543 11.95288086 C40.00478259 9.98544847 40.52206696 8.01440758 41 6 C41.66 6 42.32 6 43 6 C43.33 4.02 43.66 2.04 44 0 C50.27 0 56.54 0 63 0 C63.06058594 1.76085937 63.12117187 3.52171875 63.18359375 5.3359375 C63.26806272 7.68229766 63.35270747 10.02865151 63.4375 12.375 C63.47681641 13.53128906 63.51613281 14.68757813 63.55664062 15.87890625 C63.74258552 20.94232889 63.9530329 25.96484238 64.53125 31 C65.2079575 37.20094062 65.10764765 43.39462387 65.0625 49.625 C65.05798828 50.81996094 65.05347656 52.01492188 65.04882812 53.24609375 C65.03715616 56.16408455 65.01922515 59.08204919 65 62 C60.71 62 56.42 62 52 62 C51.16036385 50.81494839 50.8713591 39.71400269 50.9375 28.5 C50.94253584 26.98307443 50.94709499 25.4661472 50.95117188 23.94921875 C50.96198764 20.2994436 50.97913154 16.64973321 51 13 C50.34 13 49.68 13 49 13 C48.814375 14.918125 48.814375 14.918125 48.625 16.875 C47.70755549 24.99183545 46.08509292 32.42749919 43 40 C42.34 40 41.68 40 41 40 C40.9175 41.2375 40.835 42.475 40.75 43.75 C40.1010354 49.82314631 38.04334483 55.26545161 36 61 C32.04 61 28.08 61 24 61 C23.54109375 59.21335937 23.0821875 57.42671875 22.609375 55.5859375 C18.02483264 37.73278904 18.02483264 37.73278904 13 20 C11.69656002 23.91031993 11.65295299 27.74092513 11.46484375 31.82421875 C11.42186661 32.68561966 11.37888947 33.54702057 11.33460999 34.43452454 C11.19827827 37.18533844 11.06781927 39.93639534 10.9375 42.6875 C10.8460898 44.55275337 10.7542976 46.41798805 10.66210938 48.28320312 C10.43697327 52.85526382 10.21710363 57.42755113 10 62 C5.71 62 1.42 62 -3 62 C-2.30558651 41.31378768 -1.19427693 20.66215046 0 0 Z " fill="#979797" transform="translate(776,460)"/>
<path d="M0 0 C0.75522949 -0.00515625 1.51045898 -0.0103125 2.28857422 -0.015625 C7.45847203 0.04729921 11.96562022 0.89599396 16.9375 2.3125 C16.79707123 3.95880328 16.65000671 5.60454179 16.5 7.25 C16.41878906 8.16652344 16.33757813 9.08304687 16.25390625 10.02734375 C15.9375 12.3125 15.9375 12.3125 14.9375 13.3125 C11.49333557 13.16027174 8.07015915 12.91044678 4.63476562 12.62890625 C-0.44091217 12.26477189 -5.04932177 12.35529121 -10.0625 13.3125 C-12.91804017 15.74977882 -12.91804017 15.74977882 -15.0625 18.3125 C-15.7225 18.3125 -16.3825 18.3125 -17.0625 18.3125 C-18.9794573 23.93507161 -19.31139924 28.83619385 -19.1875 34.75 C-19.17847656 35.57693359 -19.16945313 36.40386719 -19.16015625 37.25585938 C-19.13681512 39.27486708 -19.10095288 41.29372356 -19.0625 43.3125 C-17.5775 43.8075 -17.5775 43.8075 -16.0625 44.3125 C-15.423125 45.116875 -14.78375 45.92125 -14.125 46.75 C-11.18767797 50.39940009 -9.27532726 51.16707049 -4.609375 51.7265625 C0.6640625 52.01953125 0.6640625 52.01953125 5.9375 52.3125 C5.9375 47.6925 5.9375 43.0725 5.9375 38.3125 C2.9675 38.3125 -0.0025 38.3125 -3.0625 38.3125 C-3.0625 34.6825 -3.0625 31.0525 -3.0625 27.3125 C4.5275 27.3125 12.1175 27.3125 19.9375 27.3125 C19.9375 38.5325 19.9375 49.7525 19.9375 61.3125 C5.27235446 64.45503119 -5.89855556 65.81357855 -20.0625 61.3125 C-21.0525 60.6525 -22.0425 59.9925 -23.0625 59.3125 C-23.0625 58.6525 -23.0625 57.9925 -23.0625 57.3125 C-23.95582031 56.92964844 -23.95582031 56.92964844 -24.8671875 56.5390625 C-29.77008202 53.79972286 -32.49754774 48.8019196 -34.4375 43.6875 C-36.32670583 33.67077327 -35.99422449 23.37905447 -31.0625 14.3125 C-29.199622 11.8650965 -27.48818784 10.26359674 -25.0625 8.3125 C-24.4025 8.3125 -23.7425 8.3125 -23.0625 8.3125 C-23.0625 7.6525 -23.0625 6.9925 -23.0625 6.3125 C-21.4125 5.9825 -19.7625 5.6525 -18.0625 5.3125 C-18.0625 4.6525 -18.0625 3.9925 -18.0625 3.3125 C-11.96137339 0.60088817 -6.591331 0.01080768 0 0 Z " fill="#979797" transform="translate(943.0625,458.6875)"/>
<path d="M0 0 C6.27 0 12.54 0 19 0 C20.50503582 3.76258955 21.64936291 7.16487911 22.625 11.0625 C23.01558594 12.59583984 23.01558594 12.59583984 23.4140625 14.16015625 C24 17 24 17 24 21 C24.66 21 25.32 21 26 21 C26.8393758 24.10256512 27.6704505 27.20729444 28.5 30.3125 C28.73847656 31.19357422 28.97695313 32.07464844 29.22265625 32.98242188 C29.56103516 34.25375977 29.56103516 34.25375977 29.90625 35.55078125 C30.11572266 36.33106689 30.32519531 37.11135254 30.54101562 37.9152832 C31 40 31 40 31 43 C31.66 43 32.32 43 33 43 C37 56.71428571 37 56.71428571 37 62 C32.05 62 27.1 62 22 62 C20.68 56.72 19.36 51.44 18 46 C11.73 46 5.46 46 -1 46 C-1.33 48.97 -1.66 51.94 -2 55 C-2.66 57.31 -3.32 59.62 -4 62 C-8.95 62 -13.9 62 -19 62 C-12.71511041 36.1988743 -12.71511041 36.1988743 -8.046875 24.01171875 C-5.65465306 17.12961758 -3.88807722 10.03386144 -2 3 C-1.34 3 -0.68 3 0 3 C0 2.01 0 1.02 0 0 Z " fill="#979797" transform="translate(867,460)"/>
<path d="M0 0 C4.62 0 9.24 0 14 0 C14.01458252 1.205354 14.02916504 2.41070801 14.04418945 3.65258789 C14.10238325 8.14620884 14.17961448 12.63933971 14.26245117 17.13256836 C14.29560159 19.07324235 14.323664 21.01401046 14.34643555 22.95483398 C14.38016384 25.75284747 14.43248819 28.5500061 14.48828125 31.34765625 C14.49467117 32.2083522 14.5010611 33.06904816 14.50764465 33.95582581 C14.63875261 39.38928501 15.58312516 43.12962516 18 48 C18.33 48.99 18.66 49.98 19 51 C23.05535109 51.34432226 26.95599604 51.5277129 31 51 C35.06175162 46.84378904 36.08312492 42.43821811 36.20532227 36.78222656 C36.22526749 35.96167786 36.24521271 35.14112915 36.26576233 34.29571533 C36.28247482 33.41953552 36.29918732 32.54335571 36.31640625 31.640625 C36.33718735 30.73624695 36.35796844 29.8318689 36.37937927 28.90008545 C36.4446594 26.01679945 36.50365952 23.1334239 36.5625 20.25 C36.60570571 18.29295956 36.64932065 16.33592812 36.69335938 14.37890625 C36.80031872 9.5860288 36.90164673 4.79306146 37 0 C41.62 0 46.24 0 51 0 C51.02484561 5.55012695 51.04292868 11.10022102 51.05493164 16.65039062 C51.05993919 18.53581303 51.06674715 20.4212316 51.07543945 22.30664062 C51.08766253 25.02735344 51.09326424 27.7480146 51.09765625 30.46875 C51.10281754 31.30241089 51.10797882 32.13607178 51.11329651 32.99499512 C51.11377714 38.08707816 50.73129553 42.95937477 50 48 C49.34 48 48.68 48 48 48 C47.8453125 48.8353125 47.8453125 48.8353125 47.6875 49.6875 C45.86685794 55.81147784 42.78062096 58.03663879 37.3515625 60.984375 C29.87372671 64.21400507 21.11028183 64.09716622 13.5625 61.25 C8.47544592 58.96042257 5.05757448 56.31540073 3 51 C3 50.01 3 49.02 3 48 C2.34 48 1.68 48 1 48 C-0.09507419 42.7027207 -0.12893641 37.6066883 -0.09765625 32.2265625 C-0.0962413 31.3028183 -0.09482635 30.3790741 -0.09336853 29.42733765 C-0.08779609 26.49319138 -0.07524869 23.55912299 -0.0625 20.625 C-0.05748144 18.62890736 -0.05291915 16.63281351 -0.04882812 14.63671875 C-0.03783569 9.75778275 -0.0205901 4.87890455 0 0 Z " fill="#969696" transform="translate(453,460)"/>
<path d="M0 0 C12.87 0 25.74 0 39 0 C39 3.96 39 7.92 39 12 C30.75 12 22.5 12 14 12 C14 16.29 14 20.58 14 25 C21.59 25 29.18 25 37 25 C37 28.63 37 32.26 37 36 C29.41 36 21.82 36 14 36 C14 41.28 14 46.56 14 52 C22.58 52 31.16 52 40 52 C40 55.63 40 59.26 40 63 C26.8 63 13.6 63 0 63 C0 42.21 0 21.42 0 0 Z " fill="#979797" transform="translate(974,459)"/>
<path d="M0 0 C5.28 0 10.56 0 16 0 C19.3 7.7 19.3 7.7 20.4375 11.4375 C21.87416972 15.88506264 23.82159123 19.86853509 26 24 C30.21143994 16.22227687 33.13609507 8.34623723 36 0 C41.28 0 46.56 0 52 0 C51.67 1.32 51.34 2.64 51 4 C50.34 4 49.68 4 49 4 C48.896875 4.86625 48.79375 5.7325 48.6875 6.625 C47.96601586 10.16683123 46.72876739 12.84312042 45 16 C44.34 16 43.68 16 43 16 C42.505 18.475 42.505 18.475 42 21 C41.34 21 40.68 21 40 21 C39.7525 21.845625 39.505 22.69125 39.25 23.5625 C38 27 38 27 35.96875 29.8125 C32.68381126 35.45652692 33.32042015 42.09648563 33.25 48.4375 C33.20552734 50.39333008 33.20552734 50.39333008 33.16015625 52.38867188 C33.08975082 55.59211908 33.04257725 58.79606209 33 62 C28.38 62 23.76 62 19 62 C19 52.76 19 43.52 19 34 C18.34 34 17.68 34 17 34 C15.59765625 32.0234375 15.59765625 32.0234375 14.0625 29.375 C13.26585937 28.00408203 13.26585937 28.00408203 12.453125 26.60546875 C10.87649666 23.77855719 9.4203182 20.9082706 8 18 C7.505 17.236875 7.01 16.47375 6.5 15.6875 C4.42617263 11.97189262 3.24594649 8.05595346 2 4 C1.34 4 0.68 4 0 4 C0 2.68 0 1.36 0 0 Z " fill="#979797" transform="translate(669,460)"/>
<path d="M0 0 C14.625 0 14.625 0 19 3 C19 3.66 19 4.32 19 5 C19.598125 5.185625 20.19625 5.37125 20.8125 5.5625 C24.02478973 7.67343325 25.05268982 10.4098317 26 14 C26.94386196 20.77284731 25.73265032 27.76221871 23 34 C19.35406797 38.72934852 14.8965938 41.08501131 9 42 C6.03 41.67 3.06 41.34 0 41 C0 27.47 0 13.94 0 0 Z " fill="#CBCBCB" transform="translate(403,470)"/>
<path d="M0 0 C4.62 0 9.24 0 14 0 C14 20.46 14 40.92 14 62 C9.38 62 4.76 62 0 62 C0 41.54 0 21.08 0 0 Z " fill="#969696" transform="translate(748,460)"/>
<path d="M0 0 C2 1 2 1 2.68603516 2.91772461 C2.98453369 4.14761108 2.98453369 4.14761108 3.2890625 5.40234375 C3.61777344 6.73749023 3.61777344 6.73749023 3.953125 8.09960938 C4.17484375 9.03611328 4.3965625 9.97261719 4.625 10.9375 C4.85445312 11.87013672 5.08390625 12.80277344 5.3203125 13.76367188 C7 20.6773856 7 20.6773856 7 23 C3.04 23 -0.92 23 -5 23 C-3 3 -3 3 0 0 Z " fill="#CBCBCB" transform="translate(875,472)"/>
<path d="M0 0 C0.66 0.33 1.32 0.66 2 1 C3.1577506 4.47325181 3.06866652 7.36067448 3 11 C2.01 11.33 1.02 11.66 0 12 C-0.33 11.67 -0.66 11.34 -1 11 C-1.66 11.66 -2.32 12.32 -3 13 C-2.45144652 8.428721 -1.58255197 4.32564205 0 0 Z " fill="#C8C8C8" transform="translate(875,472)"/>
<path d="M0 0 C0.33 0 0.66 0 1 0 C3.46999277 10.12255965 3.46999277 10.12255965 3 14 C2.34 14.66 1.68 15.32 1 16 C0.60235737 17.98821313 0.26224651 19.98944339 0 22 C-0.33 22 -0.66 22 -1 22 C-1.11459026 14.58982977 -0.91160286 7.35793733 0 0 Z " fill="#C2C2C2" transform="translate(788,473)"/>
<path d="M0 0 C0.66 0 1.32 0 2 0 C2.38971999 2.10149011 2.76131477 4.2063482 3.125 6.3125 C3.33382812 7.48425781 3.54265625 8.65601563 3.7578125 9.86328125 C4 13 4 13 2 16 C1.34 16 0.68 16 0 16 C0 10.72 0 5.44 0 0 Z " fill="#BDBDBD" transform="translate(608,473)"/>
<path d="M0 0 C0.33 0 0.66 0 1 0 C1.18451025 9.41002278 1.18451025 9.41002278 0 14 C-1.32 14 -2.64 14 -4 14 C-4.25 8.375 -4.25 8.375 -2 5 C-1.34 5 -0.68 5 0 5 C0 3.35 0 1.7 0 0 Z " fill="#C5C5C5" transform="translate(428,484)"/>
<path d="M0 0 C0.33 0 0.66 0 1 0 C1 4.62 1 9.24 1 14 C0.34 13.01 -0.32 12.02 -1 11 C-1.66 11.66 -2.32 12.32 -3 13 C-2.52060632 8.28596212 -2.03165952 4.33420699 0 0 Z " fill="#BEBEBE" transform="translate(568,473)"/>
<path d="M0 0 C2.58926331 2.58926331 2.37398043 4.02705279 2.625 7.625 C2.69976563 8.62789063 2.77453125 9.63078125 2.8515625 10.6640625 C2.90054688 11.43492187 2.94953125 12.20578125 3 13 C2.01 13.33 1.02 13.66 0 14 C0 9.38 0 4.76 0 0 Z " fill="#C2C2C2" transform="translate(530,473)"/>
<path d="M0 0 C2.78637633 4.1795645 1.79562512 6.14668677 1 11 C0.34 10.67 -0.32 10.34 -1 10 C-1.484375 8.22265625 -1.484375 8.22265625 -1.75 6.0625 C-1.84796875 5.35222656 -1.9459375 4.64195312 -2.046875 3.91015625 C-2 2 -2 2 0 0 Z " fill="#C4C4C4" transform="translate(807,491)"/>
<path d="M0 0 C2.52480693 2.52480693 2.55738633 4.13823034 3.125 7.625 C3.29257812 8.62789063 3.46015625 9.63078125 3.6328125 10.6640625 C3.75398437 11.43492187 3.87515625 12.20578125 4 13 C3.01 13 2.02 13 1 13 C0.1276588 10.00519083 -0.10829766 7.36424089 -0.0625 4.25 C-0.05347656 3.45078125 -0.04445313 2.6515625 -0.03515625 1.828125 C-0.02355469 1.22484375 -0.01195312 0.6215625 0 0 Z " fill="#BFBFBF" transform="translate(533,486)"/>
<path d="M0 0 C0.33 0 0.66 0 1 0 C1.33 3.63 1.66 7.26 2 11 C1.34 10.67 0.68 10.34 0 10 C-0.66 10.66 -1.32 11.32 -2 12 C-1.44687265 7.97007218 -0.8441938 3.97977076 0 0 Z " fill="#BEBEBE" transform="translate(874,473)"/>
<path d="M0 0 C1.41377341 2.63904371 2.37240135 5.07120629 3 8 C1.68 7.67 0.36 7.34 -1 7 C-0.67 4.69 -0.34 2.38 0 0 Z " fill="#C0C0C0" transform="translate(564,486)"/>
</svg>
