<svg width="18" height="18" viewBox="0 0 18 18" fill="none" xmlns="http://www.w3.org/2000/svg">
<path d="M17.0011 9.17818C17.0011 8.52037 16.9467 8.04034 16.8288 7.54254H9.16394V10.5116H13.663C13.5724 11.2494 13.0825 12.3606 11.994 13.1073L11.9788 13.2067L14.4022 15.0466L14.5702 15.063C16.1122 13.6673 17.0011 11.6139 17.0011 9.17818Z" fill="#4285F4"/>
<path d="M9.16307 17.001C11.3672 17.001 13.2177 16.2898 14.5693 15.0631L11.9931 13.1073C11.3038 13.5785 10.3785 13.9074 9.16307 13.9074C7.00423 13.9074 5.17194 12.5118 4.51878 10.5828L4.42304 10.5907L1.90307 12.502L1.87012 12.5918C3.21258 15.2053 5.97012 17.001 9.16307 17.001Z" fill="#34A853"/>
<path d="M4.51945 10.5828C4.34711 10.085 4.24737 9.55157 4.24737 9.00046C4.24737 8.44928 4.34711 7.91593 4.51038 7.41813L4.50582 7.31211L1.95426 5.37018L1.87078 5.40909C1.31748 6.49362 1 7.71149 1 9.00046C1 10.2894 1.31748 11.5072 1.87078 12.5918L4.51945 10.5828Z" fill="#FBBC05"/>
<path d="M9.16311 4.0935C10.6961 4.0935 11.7301 4.74243 12.3198 5.28472L14.6237 3.08013C13.2087 1.79116 11.3673 1 9.16311 1C5.97014 1 3.21259 2.79565 1.87012 5.40912L4.50973 7.41816C5.17196 5.48916 7.00426 4.0935 9.16311 4.0935Z" fill="#EB4335"/>
</svg>
