<svg width="32" height="32" viewBox="0 0 32 32" fill="none" xmlns="http://www.w3.org/2000/svg">
<path fill-rule="evenodd" clip-rule="evenodd" d="M4.2145 13.9014L4.0108 14.5663C3.56928 16.0924 3.33333 17.531 3.33333 18.6667C3.33333 23.0849 6.91506 26.6667 11.3333 26.6667C11.3383 26.6667 11.3433 26.6667 11.3483 26.6667C12.9078 26.6638 14.3626 26.2147 15.5919 25.4403C16.3192 24.9818 16.9673 24.4093 17.5113 23.7478L17.6027 23.6366C18.6862 22.2717 19.3333 20.5447 19.3333 18.6667C19.3333 17.5309 19.0974 16.0924 18.6559 14.5663L18.4522 13.9014C18.2598 13.3064 18.0394 12.7088 17.7942 12.1209C17.7919 12.1153 17.7895 12.1096 17.7871 12.1039C17.1456 10.5693 16.3391 9.11238 15.425 7.94404C15.4178 7.93483 15.4106 7.92563 15.4034 7.91646C15.3663 7.86937 15.3291 7.82275 15.2917 7.77663C15.1566 7.60999 15.0192 7.44973 14.8798 7.29652C14.525 6.90669 14.1644 6.57037 13.8005 6.2917C12.9892 5.67094 12.1569 5.33333 11.3333 5.33333C9.94688 5.33333 8.53562 6.29014 7.24163 7.94404C5.96623 9.57417 4.90848 11.7553 4.2145 13.9014ZM19.1505 11.9149C19.3615 12.4411 19.5527 12.9708 19.7225 13.4963L19.7256 13.5059L19.9353 14.1905C20.4004 15.7968 20.6667 17.3668 20.6667 18.6667C20.6667 20.6862 20.0252 22.556 18.935 24.0833C19.9596 24.8983 21.2558 25.3846 22.6667 25.3846C25.9804 25.3846 28.6667 22.6983 28.6667 19.3846C28.6667 17.6804 27.962 15.0968 26.7942 12.9363C26.2135 11.8619 25.538 10.9297 24.8142 10.2746C24.0888 9.61788 23.3644 9.28205 22.6667 9.28205C22.0516 9.28205 21.4169 9.54217 20.7759 10.0557C20.2037 10.5141 19.654 11.1536 19.1505 11.9149ZM12.1697 27.963C14.4898 27.757 16.5658 26.702 18.085 25.1108C19.3399 26.116 20.9335 26.7179 22.6667 26.7179C26.7168 26.7179 30 23.4347 30 19.3846C30 17.4069 29.2123 14.6059 27.9672 12.3023C27.3415 11.1446 26.5804 10.0748 25.709 9.28606C24.8393 8.4988 23.8098 7.94872 22.6667 7.94872C21.6592 7.94872 20.7391 8.37674 19.9422 9.01512C19.4325 9.42352 18.959 9.92864 18.5261 10.4935C18.0206 9.43941 17.4352 8.4275 16.7822 7.52968C16.6815 7.39112 16.5791 7.25529 16.4752 7.12243C16.4284 7.06262 16.3812 7.00341 16.3338 6.94482C16.181 6.75612 16.025 6.57394 15.8659 6.39909C14.602 5.01037 13.062 4 11.3333 4C9.32575 4 7.5708 5.35952 6.19151 7.12243C4.79459 8.90789 3.6726 11.242 2.9442 13.4963L2.73443 14.1807L2.73149 14.1906C2.26637 15.7968 2 17.3668 2 18.6667C2 23.8213 6.17868 28 11.3333 28C11.6152 28 11.8942 27.9875 12.1697 27.963Z" fill="#61AD4E"/>
</svg>
