<svg width="32" height="32" viewBox="0 0 32 32" fill="none" xmlns="http://www.w3.org/2000/svg">
<g clip-path="url(#clip0_107_894)">
<path d="M23.0654 13.5782C23.1944 13.7086 23.2919 13.8613 23.3562 14.0258L25.2107 13.9964C25.7473 13.9875 26.2357 13.6641 26.4577 13.1707C26.7465 12.5289 26.5061 11.7934 25.9224 11.455L25.8032 11.3949L27.1733 10.9188C27.5161 10.7995 27.8006 10.5502 27.9643 10.2255C28.3058 9.54835 28.0399 8.73484 27.3702 8.40844L26.838 8.14799L27.2261 7.76111C28.0273 6.9599 28.0417 5.67529 27.2583 4.89186C26.4749 4.10843 25.1903 4.12284 24.389 4.92406L23.9844 5.3274L23.6933 4.73151C23.5368 4.41039 23.2578 4.16735 22.9177 4.05573C22.2083 3.82296 21.4316 4.21368 21.1829 4.92842L20.7467 6.17789L20.7366 6.14753C20.5478 5.62011 20.0487 5.27272 19.4845 5.27601C18.7375 5.28036 18.122 5.88946 18.1096 6.63648L18.076 8.68853C18.2017 8.75029 18.3186 8.83253 18.4216 8.93441M6.27349 27.4234L4.49309 27.0359L6.04187 28.5677C7.09065 29.605 8.7981 29.5858 9.87042 28.5248L17.7101 20.7673L20.8773 23.8998C21.2546 24.2729 21.8209 24.3845 22.3234 24.1848C22.9769 23.9251 23.331 23.2233 23.1669 22.5658L23.1285 22.4395L24.4107 23.0629C24.732 23.2191 25.105 23.24 25.4479 23.1211C26.1629 22.8731 26.5544 22.0968 26.3224 21.3872L26.0887 20.672L27.3987 20.6586C28.4552 20.6467 29.3212 19.7807 29.333 18.7243C29.3449 17.6679 28.4981 16.8211 27.4417 16.8329L26.1316 16.8475L26.3814 16.1283C26.5003 15.7854 26.4794 15.4124 26.3232 15.0911C25.9975 14.4211 25.1843 14.1543 24.5069 14.4951L23.322 15.0906C23.5584 14.5753 23.4569 13.9741 23.0654 13.5782C22.5428 13.0498 21.6811 13.0548 21.1408 13.5894L7.53756 27.05C7.20296 27.381 6.72615 27.5219 6.27349 27.4234ZM6.27349 27.4234L4.88039 27.1196L4.5764 25.7263M4.5764 25.7263C4.47788 25.2736 4.61875 24.7968 4.94984 24.4622M4.94984 24.4622L18.4104 10.8589C18.945 10.3187 18.95 9.45703 18.4216 8.93441C18.0257 8.54285 17.4245 8.44135 16.9092 8.67779L17.5047 7.49294C17.8455 6.81548 17.5787 6.00227 16.9087 5.67658C16.5874 5.52039 16.2144 5.49947 15.8715 5.6184L15.1523 5.86816L15.1669 4.55812C15.1787 3.50169 14.3319 2.65489 13.2755 2.66675C12.2191 2.6786 11.3531 3.54462 11.3412 4.60105L11.3278 5.91107L10.6126 5.67741C9.90296 5.4454 9.12668 5.83692 8.87868 6.55191C8.75976 6.89478 8.78068 7.26779 8.93687 7.58908L9.56025 8.87128L9.43401 8.83294C8.77647 8.66882 8.07471 9.02291 7.81496 9.67643C7.61525 10.1789 7.72688 10.7452 8.09999 11.1224L11.2325 14.2897L3.47504 22.1294C2.41396 23.2017 2.3948 24.9091 3.43207 25.9579L4.96386 27.5067L4.5764 25.7263M4.94984 24.4622L14.4191 14.8917L18.0323 11.2795L18.0322 11.2404L18.4104 10.8589M23.5156 8.58609L22.1331 9.96868M13.2104 8.46748L13.1887 10.4011M9.7458 16.7303L15.4199 22.4044M23.5323 18.7894L21.5987 18.8111" stroke="#61AD4E" stroke-width="1.5" stroke-linecap="round"/>
</g>
<defs>
<clipPath id="clip0_107_894">
<rect width="32" height="32" fill="white"/>
</clipPath>
</defs>
</svg>
