<svg width="32" height="32" viewBox="0 0 32 32" fill="none" xmlns="http://www.w3.org/2000/svg">
<g clip-path="url(#clip0_123_1453)">
<path fill-rule="evenodd" clip-rule="evenodd" d="M4.01183 2.66669C4.3866 2.66669 4.69041 2.97743 4.69041 3.36075V6.13699C4.69041 7.28686 5.60171 8.21903 6.72591 8.21917C6.29997 7.63917 6.04758 6.91823 6.04758 6.13699V4.74887C6.04758 4.36555 6.35139 4.05481 6.72616 4.05481C7.10093 4.05481 7.40474 4.36555 7.40474 4.74887V6.13699C7.40474 7.28694 8.31617 8.21917 9.44048 8.21917H17.6347C19.4483 8.21917 21.246 8.52636 22.9555 9.12507C22.964 9.12787 22.9725 9.13084 22.9809 9.13399C23.429 9.29175 23.871 9.46955 24.3056 9.66711L24.8025 9.89299C26.0242 10.4484 27.0305 11.3724 27.7017 12.5194C27.7066 12.5275 27.7113 12.5355 27.7158 12.5437C28.0291 13.0843 28.2681 13.6739 28.4205 14.2974C28.6353 15.1764 28.7086 16.0778 28.6439 16.9675C28.6433 16.9773 28.6426 16.987 28.6417 16.9968C28.5597 18.0729 28.2758 19.1314 27.7965 20.1119L27.6905 20.3286C26.7425 22.268 25.153 23.8009 23.2044 24.6551L21.4845 25.409L21.4633 25.4563C20.0745 28.3728 16.8681 29.9205 13.7624 29.1264L12.816 28.8844L12.8413 28.085L12.842 28.0738C12.9267 26.7387 13.626 25.5753 14.6535 24.8766C13.5564 24.1305 12.8334 22.8548 12.8334 21.4063V20.8644L13.7624 20.6268C16.3511 19.9649 19.01 20.9302 20.6275 22.959L21.1063 20.2656C21.3536 18.8745 20.4822 17.5321 19.1327 17.2254C17.0645 16.7553 15.037 16.1148 13.0699 15.31L12.5814 15.1101C10.3557 14.1996 8.86936 12.0404 8.76749 9.60729H6.72616C4.85231 9.60729 3.33325 8.05358 3.33325 6.13699V3.36075C3.33325 2.97743 3.63706 2.66669 4.01183 2.66669ZM10.1263 9.60729C10.2269 11.4725 11.3751 13.1216 13.0854 13.8213L13.3183 13.9166L13.3201 13.9109L13.5562 13.9862C13.5656 13.9892 13.5749 13.9924 13.584 13.9958C15.1972 14.4677 16.9428 14.1075 18.2532 13.0199L18.4804 12.8199L21.4045 10.0974C20.1764 9.77282 18.9099 9.60729 17.6347 9.60729H10.1263ZM22.9025 10.5798L19.3731 13.8659L19.1173 14.0907C18.4949 14.6091 17.7944 14.9971 17.0542 15.248C17.8381 15.4815 18.6295 15.6891 19.4271 15.8704C19.4937 15.8855 19.5595 15.9023 19.6245 15.9207C19.6589 15.921 19.6937 15.924 19.7288 15.9298C21.2364 16.1823 22.7795 15.7739 23.9781 14.8056L24.2279 14.5911L26.2319 12.7693C25.7218 12.0792 25.0441 11.5219 24.2513 11.1615L23.7544 10.9356C23.4737 10.808 23.1896 10.6894 22.9025 10.5798ZM26.9097 14.0103L25.108 15.6481L24.8286 15.8877C23.9011 16.6397 22.8078 17.1225 21.6619 17.3067C22.0452 17.8049 22.3126 18.3934 22.4332 19.0252L22.8426 19.0517C24.6288 19.1657 26.2965 18.278 27.2446 16.8009L27.3 16.71C27.3355 16.0171 27.2709 15.3175 27.1039 14.634C27.0517 14.4208 26.9867 14.2125 26.9097 14.0103ZM26.6471 19.3554C25.5317 20.1249 24.1744 20.5276 22.7579 20.4371L22.4575 20.4177C22.4526 20.4498 22.4473 20.4819 22.4416 20.514L21.8699 23.7298L22.6698 23.3792C24.3233 22.6544 25.6721 21.3536 26.4766 19.7078L26.5826 19.4911C26.6046 19.4461 26.6261 19.4009 26.6471 19.3554ZM20.2294 24.8766C19.1353 22.6118 16.6639 21.3913 14.2402 21.9378C14.4827 23.2168 15.5835 24.1826 16.9049 24.1826V25.5707C15.5836 25.5707 14.4824 26.5367 14.2401 27.8154C16.6639 28.362 19.1355 27.1413 20.2294 24.8766Z" fill="#61AD4E"/>
<path fill-rule="evenodd" clip-rule="evenodd" d="M13.8513 11.6895C13.8513 11.1145 14.307 10.6484 14.8691 10.6484H15.0048C15.567 10.6484 16.0227 11.1145 16.0227 11.6895C16.0227 12.2644 15.567 12.7306 15.0048 12.7306H14.8691C14.307 12.7306 13.8513 12.2644 13.8513 11.6895Z" fill="#61AD4E"/>
</g>
<defs>
<clipPath id="clip0_123_1453">
<rect width="32" height="32" fill="white"/>
</clipPath>
</defs>
</svg>
