<svg width="32" height="32" viewBox="0 0 32 32" fill="none" xmlns="http://www.w3.org/2000/svg">
<path fill-rule="evenodd" clip-rule="evenodd" d="M10.2887 5.03816L11.2529 4.75199C14.4265 3.81015 17.7828 3.75206 20.9848 4.58356L22.282 4.92042C25.3063 5.70577 27.6973 8.10789 28.5537 11.2214L28.914 12.5311C29.5777 14.9439 29.4509 17.5174 28.5537 19.8473L28.4547 20.1043C27.7139 22.0282 25.9679 23.3198 23.9931 23.4333L23.7095 23.4414C21.4696 23.4414 19.2965 24.2332 17.5474 25.6866L16.7892 26.3167C14.659 28.0868 11.7636 28.4951 9.25615 27.3789L8.48481 27.0355C5.48459 25.6999 3.39175 22.8113 2.98689 19.4469L2.75703 17.5369C2.43275 14.8422 2.9875 12.1124 4.33262 9.78375C5.66658 7.47442 7.79567 5.77802 10.2887 5.03816ZM20.9848 4.58356L22.282 4.92042C25.3063 5.70577 27.6973 8.10789 28.5537 11.2214L28.914 12.5311C29.0004 12.8454 29.0735 13.1625 29.1332 13.4814C29.0044 14.18 28.8106 14.8671 28.5537 15.5343L28.4547 15.7914C27.7139 17.7153 25.9679 19.0069 23.9931 19.1203L23.7095 19.1285C21.4696 19.1285 19.2965 19.9203 17.5474 21.3737L16.7892 22.0037C14.659 23.7739 11.7636 24.1822 9.25615 23.0659L8.48481 22.7226C5.48459 21.387 3.39175 18.4983 2.98689 15.134L2.84091 13.9428C3.08627 12.4829 3.58851 11.072 4.33262 9.78375C5.66658 7.47442 7.79567 5.77802 10.2887 5.03816L11.2529 4.75199C14.4265 3.81015 17.7828 3.75206 20.9848 4.58356ZM29.1765 13.8171C27.8644 11.0082 25.1227 9.22467 22.117 9.22467H21.668C18.1696 9.22467 14.748 8.15825 11.8275 6.15762L10.9415 5.55068C10.6944 5.38141 10.4428 5.22165 10.1871 5.07146L10.2887 5.03816L11.2529 4.75199C12.8397 4.28107 14.4722 4.03109 16.1082 4.00277L16.7218 4.00255C18.1535 4.02627 19.5839 4.21978 20.9848 4.58356L22.282 4.92042C25.3063 5.70577 27.6973 8.10789 28.5537 11.2214L28.914 12.5311C29.0384 12.9835 29.1351 13.4416 29.2041 13.9026L29.1984 13.8642C29.1911 13.8485 29.1839 13.8328 29.1765 13.8171ZM7.84196 14.2923C7.84196 15.4832 9.08129 16.4487 10.6101 16.4487C12.1389 16.4487 13.3782 15.4832 13.3782 14.2923C13.3782 13.1013 12.1389 12.1358 10.6101 12.1358C9.08129 12.1358 7.84196 13.1013 7.84196 14.2923Z" stroke="#589D47" stroke-width="1.5" stroke-linecap="square"/>
</svg>
