<svg width="32" height="32" viewBox="0 0 32 32" fill="none" xmlns="http://www.w3.org/2000/svg">
<g clip-path="url(#clip0_123_1409)">
<path fill-rule="evenodd" clip-rule="evenodd" d="M5.30608 2.66656L9.51108 3.51163C11.2792 3.86696 12.6416 5.20887 13.0769 6.8983C13.4998 6.39791 14.0244 5.97858 14.6299 5.67438L14.9085 5.53439C15.2344 5.37063 15.6308 5.50338 15.7938 5.8309C15.9567 6.15842 15.8246 6.55668 15.4987 6.72044L15.22 6.86044C14.6116 7.16614 14.1146 7.63061 13.7687 8.18939C18.6669 8.78651 22.4618 12.9789 22.4618 18.0618C22.4618 18.5156 22.4315 18.9626 22.3728 19.4008L29.3334 26.3951L28.8668 26.8639C27.3492 28.3889 25.2508 29.3332 22.934 29.3332C22.3746 29.3332 21.8274 29.2781 21.2975 29.1728C20.7516 29.0643 20.2246 28.9026 19.7223 28.6933C18.7225 28.2767 17.8209 27.6719 17.0608 26.9232C15.7113 27.6165 14.1824 28.0072 12.5643 28.0072C7.09801 28.0072 2.66675 23.5545 2.66675 18.0618C2.66675 13.8048 5.32856 10.1725 9.07101 8.75364L9.01909 8.7432C6.86014 8.30933 5.30608 6.40452 5.30608 4.19217V2.66656ZM11.9044 9.46765C7.47532 9.80621 3.98642 13.5246 3.98642 18.0618C3.98642 22.8221 7.82685 26.6811 12.5643 26.6811C13.8518 26.6811 15.0718 26.3965 16.1662 25.8864C15.7717 25.3464 15.4396 24.7573 15.1806 24.1297C14.9723 23.6249 14.8114 23.0954 14.7034 22.5468C14.5986 22.0144 14.5438 21.4645 14.5438 20.9024C14.5438 20.8811 14.5438 20.8599 14.544 20.8386C14.5438 20.8174 14.5438 20.7961 14.5438 20.7748C14.5438 18.4469 15.4836 16.3383 17.0012 14.8134L17.4677 14.3446L21.1421 18.0355C21.1287 13.5292 17.6737 9.83653 13.2794 9.47207C13.243 9.67902 13.2241 9.89085 13.2241 10.1056H11.9044V9.46765ZM11.9032 7.9705C11.861 6.42976 10.7643 5.1158 9.25227 4.81193L6.62701 4.28434C6.6692 5.82507 7.76585 7.13904 9.2779 7.44291L11.9032 7.9705ZM18.2586 26.2323C18.8387 26.7465 19.503 27.1664 20.2278 27.4684C20.6506 27.6445 21.094 27.7806 21.5536 27.872C21.9995 27.9606 22.461 28.0072 22.934 28.0072C24.6492 28.0072 26.2209 27.3942 27.4455 26.3733L26.6928 25.617C25.6637 26.4463 24.3561 26.9431 22.934 26.9431C22.8165 26.9431 22.6998 26.9398 22.584 26.9331C21.8802 26.8925 21.2089 26.7302 20.5906 26.467L20.0231 26.2305L20.037 26.1968C18.6972 25.4549 17.6692 24.2145 17.2006 22.7243L17.1649 22.7315L17.0444 22.1194C16.9794 21.8 16.9395 21.4715 16.9268 21.1359C16.9238 21.0584 16.9224 20.9806 16.9224 20.9024C16.9224 19.4734 17.4168 18.1596 18.2421 17.1255L17.4894 16.3692C16.486 17.5845 15.8786 19.14 15.8637 20.8386C15.8798 22.6784 16.591 24.35 17.7473 25.6035L18.303 26.2058L18.2586 26.2323ZM19.1824 18.0703C18.5916 18.8591 18.242 19.8393 18.242 20.9024C18.242 20.9657 18.2433 21.0286 18.2457 21.0913C18.2467 21.1151 18.2478 21.139 18.2491 21.1628L21.5945 20.4941L19.1824 18.0703ZM21.8519 21.7947L18.5054 22.4636C18.8734 23.5178 19.6037 24.4008 20.5462 24.9618L21.8519 21.7947ZM22.6926 25.611C22.3741 25.5947 22.0639 25.5466 21.7652 25.4696L23.1657 22.0728L25.7525 24.6721C24.9675 25.2658 23.992 25.6171 22.934 25.6171C22.853 25.6171 22.7725 25.615 22.6926 25.611Z" fill="#61AD4E"/>
</g>
<defs>
<clipPath id="clip0_123_1409">
<rect width="32" height="32" fill="white"/>
</clipPath>
</defs>
</svg>
