<svg width="48" height="48" viewBox="0 0 48 48" fill="none" xmlns="http://www.w3.org/2000/svg">
<path d="M20.3698 38.5368C19.5816 39.5268 18.6026 39.7467 17.3938 39.6122C15.6988 39.4236 14.0253 39.0383 12.3517 38.7189C10.3768 38.342 7.10019 38.1673 5.75019 36.4858C4.52557 34.9605 5.11621 33.1879 5.46482 31.4873L8.50077 15.8087C8.59176 15.3107 8.7478 13.5226 9.07832 13.2011C9.28452 13.0005 9.19072 12.7029 9.19077 12.4432L9.19527 9.87056C9.19888 9.4222 9.35807 8.99142 9.68141 8.66756C10.3945 7.95328 11.0614 8.06208 11.9741 8.0618L15.5999 8.06278C16.0887 8.06325 16.5313 8.0752 17.013 8.14083L20.4873 8.46028L22.597 8.53402L27.5 8.44786L31.0367 8.14055C31.2254 8.11964 31.409 8.08341 31.5994 8.07417L36.3662 8.06166C36.6295 8.04141 37.1997 7.99955 37.4397 8.11285L37.4943 8.13605C38.0213 8.32852 38.5809 8.76127 38.7082 9.33014L38.7227 9.39858C38.8083 9.6488 38.7989 9.86203 38.7987 10.1248L38.7991 12.6797C38.7997 12.9387 38.7041 13.3316 38.8983 13.539C39.1099 13.765 39.3662 14.284 39.4598 14.5643L39.4682 14.59C39.6645 15.1531 39.6613 15.6923 39.7508 16.2658L40.5353 20.7828C40.5904 21.0944 40.6209 21.4181 40.6882 21.7267L42.5266 31.4218C42.7718 32.726 42.9621 33.2894 42.5878 34.64C42.1684 36.1533 41.1392 37.3584 39.6287 37.8916C39.0095 38.1102 38.3212 38.2111 37.6817 38.3652L35.4106 38.9687C33.1506 39.5634 27.0333 41.0149 26.6515 37.3922C26.5604 36.528 26.3886 36.4951 26.1274 35.7726L23.9877 29.3066C23.8345 29.6551 23.7433 30.0476 23.6237 30.4103L21.7649 35.7646C21.5984 36.2314 21.4537 36.8047 21.0906 37.1648C20.6887 37.5635 20.7383 37.9879 20.3698 38.5368ZM10.9426 9.45131C10.8017 9.5115 10.5855 9.62105 10.5711 9.79505L10.5491 13.0019L21.4572 13.0582C21.6613 13.0644 21.8626 13.1149 22.0693 13.1207L29.0894 13.1306C29.4517 13.1311 29.8311 13.1526 30.189 13.0917L30.5668 13.0311C30.8409 12.9877 31.1357 13.006 31.4131 13.0058L37.3478 13.0064L37.4282 9.98358C37.4232 9.37622 37.064 9.44888 36.5553 9.44906L32.2189 9.45291C31.9628 9.45595 31.7234 9.50138 31.4722 9.51919L26.476 9.91983L21.3327 9.90985C21.1557 9.89817 20.9809 9.86424 20.8041 9.85481L16.4229 9.51492C15.5559 9.43059 14.7087 9.45216 13.8371 9.4515L10.9426 9.45131ZM10.134 14.4297C10.0615 14.7196 10.0357 15.0088 9.98329 15.3048L9.60074 17.4676L6.98183 30.9876L6.71929 32.1554C6.66754 32.3591 6.59615 32.5954 6.58382 32.8051L8.89344 33.8665L9.28372 32.557L12.3499 20.8719C12.2459 20.7557 12.183 20.6458 12.1395 20.4962L12.1314 20.4688C11.8855 19.5708 12.9868 19.6395 13.1588 19.35C13.7556 18.3452 13.8549 16.3499 13.8536 15.1161C13.8534 14.908 13.8842 14.637 13.8435 14.4378L10.134 14.4297ZM34.387 14.4306C34.3226 14.784 34.3545 15.1796 34.3544 15.5416C34.3543 16.1738 34.2457 19.1727 34.9416 19.4581C35.3318 19.6181 36.1798 19.7873 35.876 20.512L35.8226 20.6146C35.655 20.9203 35.4654 20.7376 35.5054 21.1525C35.6263 22.4071 35.9233 23.8662 36.1993 25.0889C36.2909 25.4945 36.3793 25.9282 36.517 26.3205L39.0073 33.5625C39.0258 33.6302 39.0662 33.6978 39.098 33.7606L40.5813 33.3268L41.4663 33.0506L40.0547 25.8283L38.4613 16.9572C38.3036 15.8837 38.3975 15.3908 37.8262 14.4158L34.387 14.4306ZM15.2335 14.4357C15.2529 15.7594 15.216 17.1021 14.9345 18.3927L15.537 17.6221C16.1791 16.7669 16.5386 15.5163 16.524 14.4392L15.2335 14.4357ZM31.6648 14.4387L31.5767 14.4659C31.5337 14.8936 31.6519 15.6653 31.8193 16.0881L31.9232 16.4298C32.1666 17.1036 32.54 17.7398 33.0118 18.2811L33.0478 18.2801C32.9059 17.0053 33.0129 15.7212 32.9755 14.4422L31.6648 14.4387ZM30.0141 14.4936C29.1916 14.6006 28.3664 14.5738 27.5387 14.5707L24.7279 14.5642L24.7239 25.2488C24.7248 26.5903 24.7924 27.486 25.2536 28.7541L26.1437 31.5961L27.3923 35.1642C27.4513 35.3146 27.4544 35.4727 27.5361 35.6134C28.7654 36.1172 30.8896 35.8398 32.2085 35.6468C33.6125 35.5034 35.3688 34.9042 36.7248 34.5119L37.4606 34.2908C37.5636 34.2576 37.7049 34.2244 37.791 34.1624L35.1184 26.4718C34.7243 25.0715 34.0873 22.1552 34.0991 20.6982C31.7445 19.6965 30.3322 17.3408 30.2071 14.8337C30.2023 14.737 30.2487 14.5335 30.1642 14.4753L30.0141 14.4936ZM17.9367 14.5733L17.8903 15.0972C17.5926 17.4713 16.196 20.0131 13.7881 20.7525L12.4091 26.6442L11.6833 29.3682L10.1863 34.3173C10.5972 34.446 11.0213 34.5352 11.4403 34.6329L16.1659 35.5234L20.1688 36.0726L21.4578 32.4558C22.1118 30.5963 22.774 28.7173 23.2267 26.7978C23.3076 26.4549 23.2634 26.0336 23.2629 25.6799L23.2754 14.5753L18.2163 14.5698C18.1417 14.5694 18.0036 14.5489 17.9367 14.5733ZM6.36144 34.2747C6.36791 34.523 6.39941 34.7313 6.46818 34.9689L6.47619 34.9982C7.00574 36.7874 11.0286 37.0643 12.5991 37.3478L17.1459 38.1847C17.8301 38.2695 18.4833 38.3909 19.0604 37.9301C19.2302 37.7426 19.3336 37.5865 19.441 37.3581L17.1795 37.0876L12.4693 36.2734C10.6639 35.9149 8.94918 35.518 7.28427 34.7196C6.98038 34.5738 6.67499 34.3956 6.36144 34.2747ZM41.0326 34.6759L34.7346 36.5163C33.2813 36.8913 30.2863 37.5174 28.7788 37.2274L28.0364 37.1611C28.0858 37.4128 28.1496 37.8245 28.373 37.977L28.4039 37.9966C29.3394 38.4191 30.4382 38.3938 31.434 38.294L33.2111 38.0473L38.4094 36.7643C39.6388 36.499 40.5225 36.0446 41.0563 34.7814L41.0326 34.6759Z" fill="black"/>
</svg>
