<svg width="428" height="239" viewBox="0 0 428 239" fill="none" xmlns="http://www.w3.org/2000/svg">
<g filter="url(#filter0_d_127_17926)">
<g clip-path="url(#clip0_127_17926)">
<rect x="15" y="8" width="398" height="209" rx="20" fill="url(#paint0_linear_127_17926)"/>
<path d="M39.624 116.36C40.168 116.36 40.616 116.451 40.968 116.632C41.32 116.803 41.5973 116.995 41.8 117.208C42.0027 117.411 42.1413 117.576 42.216 117.704H42.312V116.52H44.44V125H42.312V123.816H42.216C42.1413 123.944 42.0027 124.115 41.8 124.328C41.5973 124.541 41.32 124.733 40.968 124.904C40.616 125.075 40.168 125.16 39.624 125.16C38.9947 125.16 38.4453 125.037 37.976 124.792C37.5067 124.536 37.112 124.2 36.792 123.784C36.4827 123.357 36.248 122.883 36.088 122.36C35.9387 121.837 35.864 121.304 35.864 120.76C35.864 120.216 35.9387 119.683 36.088 119.16C36.248 118.637 36.4827 118.168 36.792 117.752C37.112 117.325 37.5067 116.989 37.976 116.744C38.4453 116.488 38.9947 116.36 39.624 116.36ZM40.184 118.104C39.704 118.104 39.2987 118.237 38.968 118.504C38.648 118.76 38.408 119.091 38.248 119.496C38.088 119.901 38.008 120.323 38.008 120.76C38.008 121.197 38.088 121.619 38.248 122.024C38.408 122.429 38.648 122.765 38.968 123.032C39.2987 123.288 39.704 123.416 40.184 123.416C40.664 123.416 41.064 123.288 41.384 123.032C41.704 122.765 41.944 122.429 42.104 122.024C42.264 121.619 42.344 121.197 42.344 120.76C42.344 120.323 42.264 119.901 42.104 119.496C41.944 119.091 41.704 118.76 41.384 118.504C41.064 118.237 40.664 118.104 40.184 118.104ZM46.7807 125L46.7967 112.84H48.9088V125H46.7807ZM51.3782 125L51.3942 112.84H53.5062V125H51.3782ZM59.8232 128.136V116.52H61.9512V117.704H62.0632C62.1379 117.576 62.2712 117.405 62.4632 117.192C62.6659 116.979 62.9432 116.787 63.2952 116.616C63.6472 116.445 64.0952 116.36 64.6392 116.36C65.2792 116.36 65.8339 116.488 66.3032 116.744C66.7726 116.989 67.1619 117.325 67.4712 117.752C67.7806 118.168 68.0099 118.637 68.1593 119.16C68.3193 119.683 68.3993 120.216 68.3993 120.76C68.3993 121.304 68.3193 121.837 68.1593 122.36C68.0099 122.883 67.7806 123.357 67.4712 123.784C67.1619 124.2 66.7726 124.536 66.3032 124.792C65.8339 125.037 65.2792 125.16 64.6392 125.16C64.0952 125.16 63.6472 125.075 63.2952 124.904C62.9432 124.723 62.6659 124.525 62.4632 124.312C62.2712 124.099 62.1379 123.933 62.0632 123.816H61.9512V128.136H59.8232ZM61.9192 120.76C61.9192 121.197 61.9992 121.619 62.1592 122.024C62.3192 122.429 62.5592 122.765 62.8792 123.032C63.1992 123.288 63.5992 123.416 64.0792 123.416C64.5699 123.416 64.9752 123.288 65.2952 123.032C65.6152 122.765 65.8552 122.429 66.0152 122.024C66.1752 121.619 66.2552 121.197 66.2552 120.76C66.2552 120.323 66.1752 119.901 66.0152 119.496C65.8552 119.091 65.6152 118.76 65.2952 118.504C64.9752 118.237 64.5699 118.104 64.0792 118.104C63.5992 118.104 63.1992 118.237 62.8792 118.504C62.5592 118.76 62.3192 119.091 62.1592 119.496C61.9992 119.901 61.9192 120.323 61.9192 120.76ZM70.417 125V116.52H72.529V117.688H72.609C72.7583 117.357 73.0037 117.053 73.345 116.776C73.6863 116.499 74.1983 116.36 74.881 116.36C75.0943 116.36 75.2703 116.376 75.409 116.408C75.5477 116.429 75.617 116.44 75.617 116.44V118.504C75.617 118.504 75.537 118.493 75.377 118.472C75.2277 118.451 75.041 118.44 74.817 118.44C74.0703 118.44 73.505 118.648 73.121 119.064C72.737 119.48 72.545 120.152 72.545 121.08V125H70.417ZM81.0041 125.16C80.0761 125.16 79.2868 124.952 78.6361 124.536C77.9855 124.12 77.4895 123.581 77.1481 122.92C76.8175 122.248 76.6521 121.528 76.6521 120.76C76.6521 119.992 76.8175 119.277 77.1481 118.616C77.4895 117.944 77.9855 117.4 78.6361 116.984C79.2868 116.568 80.0761 116.36 81.0041 116.36C81.9428 116.36 82.7321 116.568 83.3721 116.984C84.0228 117.4 84.5135 117.944 84.8441 118.616C85.1855 119.277 85.3561 119.992 85.3561 120.76C85.3561 121.528 85.1855 122.248 84.8441 122.92C84.5135 123.581 84.0228 124.12 83.3721 124.536C82.7321 124.952 81.9428 125.16 81.0041 125.16ZM81.0041 123.384C81.4841 123.384 81.8841 123.261 82.2041 123.016C82.5348 122.771 82.7855 122.451 82.9561 122.056C83.1268 121.651 83.2121 121.219 83.2121 120.76C83.2121 120.291 83.1268 119.859 82.9561 119.464C82.7855 119.069 82.5348 118.749 82.2041 118.504C81.8841 118.259 81.4841 118.136 81.0041 118.136C80.5348 118.136 80.1348 118.259 79.8041 118.504C79.4735 118.749 79.2228 119.069 79.0521 119.464C78.8815 119.859 78.7961 120.291 78.7961 120.76C78.7961 121.219 78.8815 121.651 79.0521 122.056C79.2228 122.451 79.4735 122.771 79.8041 123.016C80.1348 123.261 80.5348 123.384 81.0041 123.384ZM90.9315 125.16C90.3022 125.16 89.7528 125.037 89.2835 124.792C88.8142 124.536 88.4195 124.2 88.0995 123.784C87.7902 123.357 87.5555 122.883 87.3955 122.36C87.2462 121.837 87.1715 121.304 87.1715 120.76C87.1715 120.216 87.2462 119.683 87.3955 119.16C87.5555 118.637 87.7902 118.168 88.0995 117.752C88.4195 117.325 88.8142 116.989 89.2835 116.744C89.7528 116.488 90.3022 116.36 90.9315 116.36C91.4755 116.36 91.9235 116.451 92.2755 116.632C92.6275 116.803 92.9048 116.995 93.1075 117.208C93.3102 117.411 93.4488 117.576 93.5235 117.704H93.6195V112.84H95.7475V125H93.6195V123.816H93.5235C93.4488 123.944 93.3102 124.115 93.1075 124.328C92.9048 124.541 92.6275 124.733 92.2755 124.904C91.9235 125.075 91.4755 125.16 90.9315 125.16ZM91.4915 123.416C91.9715 123.416 92.3715 123.288 92.6915 123.032C93.0115 122.765 93.2515 122.429 93.4115 122.024C93.5715 121.619 93.6515 121.197 93.6515 120.76C93.6515 120.323 93.5715 119.901 93.4115 119.496C93.2515 119.091 93.0115 118.76 92.6915 118.504C92.3715 118.237 91.9715 118.104 91.4915 118.104C91.0115 118.104 90.6062 118.237 90.2755 118.504C89.9555 118.76 89.7155 119.091 89.5555 119.496C89.3955 119.901 89.3155 120.323 89.3155 120.76C89.3155 121.197 89.3955 121.619 89.5555 122.024C89.7155 122.429 89.9555 122.765 90.2755 123.032C90.6062 123.288 91.0115 123.416 91.4915 123.416ZM100.741 125.16C99.8559 125.16 99.1839 124.888 98.7252 124.344C98.2772 123.8 98.0532 123.101 98.0532 122.248V116.52H100.165V121.896C100.165 122.355 100.288 122.723 100.533 123C100.779 123.267 101.125 123.4 101.573 123.4C101.968 123.4 102.288 123.299 102.533 123.096C102.779 122.893 102.955 122.632 103.061 122.312C103.179 121.992 103.237 121.661 103.237 121.32V116.52H105.365V125H103.237V123.784H103.141C103.035 123.976 102.88 124.179 102.677 124.392C102.485 124.605 102.229 124.787 101.909 124.936C101.6 125.085 101.211 125.16 100.741 125.16ZM111.718 125.16C110.993 125.16 110.358 125.037 109.814 124.792C109.27 124.536 108.817 124.2 108.454 123.784C108.091 123.357 107.819 122.883 107.638 122.36C107.467 121.837 107.382 121.304 107.382 120.76C107.382 120.216 107.467 119.683 107.638 119.16C107.819 118.637 108.086 118.168 108.438 117.752C108.801 117.325 109.254 116.989 109.798 116.744C110.342 116.488 110.982 116.36 111.718 116.36C112.443 116.36 113.046 116.467 113.526 116.68C114.006 116.893 114.385 117.16 114.662 117.48C114.95 117.8 115.163 118.12 115.302 118.44C115.441 118.749 115.531 119.011 115.574 119.224C115.617 119.437 115.638 119.544 115.638 119.544H113.638C113.638 119.544 113.617 119.475 113.574 119.336C113.531 119.187 113.446 119.016 113.318 118.824C113.19 118.632 112.998 118.461 112.742 118.312C112.497 118.163 112.166 118.088 111.75 118.088C111.259 118.088 110.843 118.216 110.502 118.472C110.171 118.717 109.921 119.043 109.75 119.448C109.579 119.853 109.494 120.291 109.494 120.76C109.494 121.229 109.579 121.667 109.75 122.072C109.921 122.477 110.171 122.808 110.502 123.064C110.843 123.309 111.259 123.432 111.75 123.432C112.166 123.432 112.497 123.357 112.742 123.208C112.998 123.059 113.19 122.888 113.318 122.696C113.446 122.504 113.531 122.339 113.574 122.2C113.617 122.051 113.638 121.976 113.638 121.976H115.638C115.638 121.976 115.617 122.083 115.574 122.296C115.531 122.509 115.441 122.776 115.302 123.096C115.163 123.405 114.95 123.72 114.662 124.04C114.385 124.36 114.006 124.627 113.526 124.84C113.046 125.053 112.443 125.16 111.718 125.16ZM121.478 125.16C120.902 125.16 120.428 125.075 120.054 124.904C119.681 124.733 119.388 124.509 119.174 124.232C118.972 123.955 118.828 123.651 118.742 123.32C118.657 122.989 118.614 122.664 118.614 122.344V118.232H117.158V116.52H118.614V114.408H120.742V116.52H122.646V118.232H120.742V122.296C120.742 123.053 121.169 123.432 122.022 123.432C122.225 123.432 122.412 123.421 122.582 123.4C122.764 123.368 122.854 123.352 122.854 123.352V125.016C122.854 125.016 122.716 125.037 122.438 125.08C122.172 125.133 121.852 125.16 121.478 125.16ZM128.176 125.16C127.483 125.16 126.912 125.069 126.464 124.888C126.016 124.696 125.659 124.461 125.392 124.184C125.136 123.896 124.944 123.613 124.816 123.336C124.688 123.059 124.603 122.829 124.56 122.648C124.528 122.456 124.512 122.36 124.512 122.36H126.528C126.528 122.36 126.544 122.419 126.576 122.536C126.619 122.653 126.693 122.792 126.8 122.952C126.917 123.101 127.093 123.235 127.328 123.352C127.563 123.469 127.872 123.528 128.256 123.528C128.715 123.528 129.045 123.432 129.248 123.24C129.451 123.037 129.552 122.813 129.552 122.568C129.552 122.333 129.461 122.147 129.28 122.008C129.109 121.859 128.853 121.747 128.512 121.672L127.344 121.432C126.875 121.336 126.437 121.197 126.032 121.016C125.627 120.824 125.296 120.568 125.04 120.248C124.784 119.917 124.656 119.496 124.656 118.984C124.656 118.227 124.944 117.603 125.52 117.112C126.096 116.611 126.88 116.36 127.872 116.36C128.501 116.36 129.019 116.445 129.424 116.616C129.84 116.787 130.171 117 130.416 117.256C130.672 117.512 130.859 117.768 130.976 118.024C131.104 118.28 131.184 118.499 131.216 118.68C131.259 118.851 131.28 118.936 131.28 118.936H129.328C129.328 118.936 129.312 118.888 129.28 118.792C129.248 118.685 129.179 118.568 129.072 118.44C128.976 118.312 128.827 118.2 128.624 118.104C128.432 117.997 128.171 117.944 127.84 117.944C127.392 117.944 127.072 118.04 126.88 118.232C126.699 118.424 126.608 118.627 126.608 118.84C126.608 119.075 126.709 119.256 126.912 119.384C127.115 119.512 127.376 119.608 127.696 119.672L128.8 119.912C129.589 120.072 130.235 120.349 130.736 120.744C131.248 121.139 131.504 121.709 131.504 122.456C131.504 122.957 131.371 123.416 131.104 123.832C130.848 124.237 130.469 124.563 129.968 124.808C129.477 125.043 128.88 125.16 128.176 125.16Z" fill="white"/>
<path d="M36.816 54V45.12H40.92C41.496 45.12 41.98 45.22 42.372 45.42C42.772 45.62 43.076 45.888 43.284 46.224C43.492 46.552 43.596 46.916 43.596 47.316C43.596 47.708 43.524 48.036 43.38 48.3C43.236 48.556 43.06 48.764 42.852 48.924C42.652 49.076 42.456 49.18 42.264 49.236V49.332C42.48 49.38 42.72 49.484 42.984 49.644C43.248 49.804 43.476 50.032 43.668 50.328C43.86 50.624 43.956 51.008 43.956 51.48C43.956 51.896 43.856 52.296 43.656 52.68C43.464 53.064 43.148 53.38 42.708 53.628C42.276 53.876 41.712 54 41.016 54H36.816ZM40.608 46.668H38.664V48.732H40.608C41.024 48.732 41.328 48.632 41.52 48.432C41.712 48.232 41.808 47.988 41.808 47.7C41.808 47.42 41.712 47.18 41.52 46.98C41.328 46.772 41.024 46.668 40.608 46.668ZM40.752 50.148H38.664V52.452H40.752C41.224 52.452 41.564 52.34 41.772 52.116C41.988 51.884 42.096 51.608 42.096 51.288C42.096 50.976 41.988 50.708 41.772 50.484C41.564 50.26 41.224 50.148 40.752 50.148ZM45.4438 54V45.12H47.2918V52.392H51.6358V54H45.4438ZM52.8187 54L55.8427 45.12H58.3027L61.3268 54H59.3828L58.8188 52.26H55.3387L54.7627 54H52.8187ZM55.8548 50.652H58.3027L57.0788 46.944L55.8548 50.652ZM66.2753 54.12C65.5393 54.12 64.8953 53.992 64.3433 53.736C63.7993 53.472 63.3433 53.124 62.9753 52.692C62.6073 52.252 62.3313 51.76 62.1473 51.216C61.9633 50.672 61.8713 50.116 61.8713 49.548C61.8713 48.988 61.9633 48.436 62.1473 47.892C62.3313 47.348 62.6073 46.86 62.9753 46.428C63.3433 45.988 63.7993 45.64 64.3433 45.384C64.8953 45.128 65.5393 45 66.2753 45C66.8913 45 67.4153 45.08 67.8473 45.24C68.2873 45.392 68.6513 45.592 68.9393 45.84C69.2353 46.08 69.4713 46.34 69.6473 46.62C69.8313 46.892 69.9673 47.152 70.0553 47.4C70.1433 47.64 70.1993 47.84 70.2233 48C70.2553 48.152 70.2713 48.228 70.2713 48.228H68.4353C68.4353 48.228 68.4193 48.176 68.3873 48.072C68.3633 47.96 68.3113 47.828 68.2313 47.676C68.1513 47.516 68.0313 47.36 67.8713 47.208C67.7193 47.056 67.5113 46.928 67.2473 46.824C66.9913 46.712 66.6713 46.656 66.2873 46.656C65.7353 46.656 65.2713 46.8 64.8953 47.088C64.5273 47.368 64.2473 47.728 64.0553 48.168C63.8713 48.608 63.7793 49.068 63.7793 49.548C63.7793 50.028 63.8713 50.492 64.0553 50.94C64.2473 51.38 64.5273 51.744 64.8953 52.032C65.2713 52.312 65.7353 52.452 66.2873 52.452C66.6713 52.452 66.9913 52.4 67.2473 52.296C67.5113 52.192 67.7193 52.064 67.8713 51.912C68.0313 51.752 68.1513 51.596 68.2313 51.444C68.3113 51.284 68.3633 51.152 68.3873 51.048C68.4193 50.944 68.4353 50.892 68.4353 50.892H70.2713C70.2713 50.892 70.2553 50.972 70.2233 51.132C70.1993 51.284 70.1433 51.484 70.0553 51.732C69.9673 51.972 69.8313 52.232 69.6473 52.512C69.4713 52.784 69.2353 53.044 68.9393 53.292C68.6513 53.532 68.2873 53.732 67.8473 53.892C67.4153 54.044 66.8913 54.12 66.2753 54.12ZM71.6905 54V45.12H73.5385V48.876L76.7185 45.12H78.9985L75.2905 49.38L79.1305 54H76.7665L73.5385 50.052V54H71.6905ZM83.286 54V45.12H89.49V46.728H85.134V49.056H88.938V50.604H85.134V54H83.286ZM91.1287 54V45.12H94.7287C95.3847 45.12 95.9447 45.236 96.4087 45.468C96.8807 45.7 97.2407 46.02 97.4887 46.428C97.7447 46.836 97.8727 47.308 97.8727 47.844C97.8727 48.428 97.7247 48.94 97.4287 49.38C97.1327 49.812 96.7127 50.128 96.1687 50.328L98.1007 54H96.0487L94.2847 50.58H92.9767V54H91.1287ZM94.7047 46.716H92.9767V49.068H94.7047C95.1127 49.068 95.4327 48.956 95.6647 48.732C95.8967 48.508 96.0127 48.232 96.0127 47.904C96.0127 47.568 95.8967 47.288 95.6647 47.064C95.4327 46.832 95.1127 46.716 94.7047 46.716ZM99.7916 54V45.12H101.64V54H99.7916ZM105.96 54V50.964L102.84 45.12H104.868L106.884 49.068L108.9 45.12H110.928L107.808 50.964V54H105.96ZM110.497 54L113.521 45.12H115.981L119.005 54H117.061L116.497 52.26H113.017L112.441 54H110.497ZM113.533 50.652H115.981L114.757 46.944L113.533 50.652ZM121.692 54V50.964L118.572 45.12H120.6L122.616 49.068L124.632 45.12H126.66L123.54 50.964V54H121.692Z" fill="white"/>
<path d="M37.088 99V95.184L41.696 91.26C43.616 89.652 45.26 88.284 46.628 87.156C47.996 86.028 49.04 84.972 49.76 83.988C50.48 83.004 50.84 81.948 50.84 80.82C50.84 79.956 50.636 79.236 50.228 78.66C49.82 78.06 49.292 77.616 48.644 77.328C48.02 77.016 47.36 76.86 46.664 76.86C45.824 76.86 45.116 77.016 44.54 77.328C43.988 77.64 43.544 78.048 43.208 78.552C42.896 79.032 42.668 79.536 42.524 80.064C42.38 80.592 42.308 81.048 42.308 81.432H36.98C36.98 80.424 37.172 79.38 37.556 78.3C37.94 77.196 38.528 76.176 39.32 75.24C40.112 74.28 41.132 73.5 42.38 72.9C43.628 72.3 45.116 72 46.844 72C48.596 72 50.192 72.348 51.632 73.044C53.072 73.716 54.224 74.688 55.088 75.96C55.976 77.232 56.42 78.732 56.42 80.46C56.42 82.092 56.012 83.58 55.196 84.924C54.404 86.244 53.288 87.54 51.848 88.812C50.408 90.06 48.752 91.416 46.88 92.88L45.368 94.14H56.78V99H37.088ZM72.0463 99.36C70.2703 99.36 68.6863 99 67.2943 98.28C65.9263 97.56 64.7623 96.576 63.8023 95.328C62.8423 94.056 62.1103 92.592 61.6063 90.936C61.1263 89.28 60.8863 87.528 60.8863 85.68C60.8863 83.808 61.1263 82.044 61.6063 80.388C62.1103 78.732 62.8423 77.28 63.8023 76.032C64.7623 74.76 65.9263 73.776 67.2943 73.08C68.6863 72.36 70.2703 72 72.0463 72C73.8223 72 75.3943 72.36 76.7623 73.08C78.1543 73.776 79.3303 74.76 80.2903 76.032C81.2503 77.28 81.9703 78.732 82.4503 80.388C82.9543 82.044 83.2063 83.808 83.2063 85.68C83.2063 87.528 82.9543 89.28 82.4503 90.936C81.9703 92.592 81.2503 94.056 80.2903 95.328C79.3303 96.576 78.1543 97.56 76.7623 98.28C75.3943 99 73.8223 99.36 72.0463 99.36ZM72.0463 94.428C73.6303 94.428 74.9263 93.696 75.9343 92.232C76.9663 90.768 77.4823 88.584 77.4823 85.68C77.4823 82.776 76.9663 80.592 75.9343 79.128C74.9263 77.664 73.6303 76.932 72.0463 76.932C70.4623 76.932 69.1543 77.664 68.1223 79.128C67.1143 80.592 66.6103 82.776 66.6103 85.68C66.6103 88.584 67.1143 90.768 68.1223 92.232C69.1543 93.696 70.4623 94.428 72.0463 94.428ZM93.0773 83.736C91.8293 83.736 90.7493 83.472 89.8373 82.944C88.9493 82.392 88.2533 81.672 87.7493 80.784C87.2693 79.896 87.0293 78.912 87.0293 77.832C87.0293 76.776 87.2693 75.804 87.7493 74.916C88.2293 74.028 88.9253 73.32 89.8373 72.792C90.7493 72.264 91.8293 72 93.0773 72C94.3493 72 95.4293 72.264 96.3173 72.792C97.2293 73.32 97.9253 74.028 98.4053 74.916C98.8853 75.804 99.1253 76.776 99.1253 77.832C99.1253 78.912 98.8853 79.896 98.4053 80.784C97.9253 81.672 97.2293 82.392 96.3173 82.944C95.4053 83.472 94.3253 83.736 93.0773 83.736ZM91.2053 99L106.145 72.36H110.501L95.5973 99H91.2053ZM93.0773 80.496C93.8213 80.496 94.4213 80.244 94.8773 79.74C95.3333 79.212 95.5613 78.588 95.5613 77.868C95.5613 77.148 95.3333 76.536 94.8773 76.032C94.4213 75.528 93.8213 75.276 93.0773 75.276C92.3093 75.276 91.6973 75.528 91.2413 76.032C90.7853 76.536 90.5573 77.148 90.5573 77.868C90.5573 78.588 90.7853 79.212 91.2413 79.74C91.6973 80.244 92.3093 80.496 93.0773 80.496ZM108.665 99.36C107.417 99.36 106.337 99.096 105.425 98.568C104.513 98.016 103.817 97.296 103.337 96.408C102.857 95.52 102.617 94.548 102.617 93.492C102.617 92.436 102.857 91.464 103.337 90.576C103.817 89.688 104.513 88.98 105.425 88.452C106.337 87.9 107.417 87.624 108.665 87.624C109.913 87.624 110.981 87.9 111.869 88.452C112.781 88.98 113.477 89.688 113.957 90.576C114.461 91.464 114.713 92.436 114.713 93.492C114.713 94.548 114.461 95.52 113.957 96.408C113.477 97.296 112.781 98.016 111.869 98.568C110.981 99.096 109.913 99.36 108.665 99.36ZM108.629 96.12C109.397 96.12 110.009 95.868 110.465 95.364C110.921 94.86 111.149 94.236 111.149 93.492C111.149 92.772 110.921 92.16 110.465 91.656C110.009 91.152 109.397 90.9 108.629 90.9C107.885 90.9 107.285 91.152 106.829 91.656C106.373 92.16 106.145 92.772 106.145 93.492C106.145 94.236 106.373 94.86 106.829 95.364C107.285 95.868 107.885 96.12 108.629 96.12ZM137.774 99.36C135.638 99.36 133.826 98.904 132.338 97.992C130.85 97.056 129.71 95.844 128.918 94.356C128.15 92.844 127.766 91.212 127.766 89.46C127.766 87.708 128.15 86.088 128.918 84.6C129.71 83.088 130.85 81.876 132.338 80.964C133.826 80.028 135.638 79.56 137.774 79.56C139.91 79.56 141.722 80.028 143.21 80.964C144.698 81.876 145.826 83.088 146.594 84.6C147.386 86.088 147.782 87.708 147.782 89.46C147.782 91.212 147.386 92.844 146.594 94.356C145.826 95.844 144.698 97.056 143.21 97.992C141.722 98.904 139.91 99.36 137.774 99.36ZM137.774 94.896C138.734 94.896 139.538 94.644 140.186 94.14C140.858 93.636 141.374 92.976 141.734 92.16C142.094 91.32 142.274 90.42 142.274 89.46C142.274 88.476 142.094 87.576 141.734 86.76C141.374 85.944 140.858 85.284 140.186 84.78C139.538 84.276 138.734 84.024 137.774 84.024C136.814 84.024 135.998 84.276 135.326 84.78C134.654 85.284 134.138 85.944 133.778 86.76C133.442 87.576 133.274 88.476 133.274 89.46C133.274 90.42 133.442 91.32 133.778 92.16C134.138 92.976 134.654 93.636 135.326 94.14C135.998 94.644 136.814 94.896 137.774 94.896ZM154.063 99V84.276H151.039V79.92H154.063V78.408C154.063 77.712 154.159 76.956 154.351 76.14C154.543 75.324 154.879 74.544 155.359 73.8C155.863 73.056 156.559 72.456 157.447 72C158.335 71.52 159.475 71.28 160.867 71.28C161.635 71.28 162.259 71.34 162.739 71.46C163.243 71.556 163.495 71.604 163.495 71.604V75.456C163.495 75.456 163.351 75.432 163.063 75.384C162.775 75.336 162.475 75.312 162.163 75.312C161.179 75.312 160.495 75.6 160.111 76.176C159.727 76.752 159.535 77.496 159.535 78.408V79.92H167.635V78.408C167.635 77.712 167.731 76.956 167.923 76.14C168.115 75.324 168.451 74.544 168.931 73.8C169.435 73.056 170.131 72.456 171.019 72C171.907 71.52 173.047 71.28 174.439 71.28C175.207 71.28 175.831 71.34 176.311 71.46C176.815 71.556 177.067 71.604 177.067 71.604V75.456C177.067 75.456 176.923 75.432 176.635 75.384C176.347 75.336 176.047 75.312 175.735 75.312C174.727 75.312 174.031 75.6 173.647 76.176C173.287 76.752 173.107 77.496 173.107 78.408V79.92H176.959V84.276H173.107V99H167.635V84.276H159.535V99H154.063Z" fill="#FDB447"/>
<rect x="35.2212" y="165.575" width="58" height="32" rx="8" fill="#FDB447"/>
<path d="M56.9892 186.715C56.1212 186.715 55.3652 186.565 54.7212 186.267C54.0772 185.968 53.5405 185.567 53.1112 185.063C52.6912 184.549 52.3739 183.98 52.1592 183.355C51.9539 182.72 51.8512 182.071 51.8512 181.409C51.8512 180.746 51.9539 180.097 52.1592 179.463C52.3739 178.828 52.6959 178.259 53.1252 177.755C53.5545 177.241 54.0959 176.835 54.7492 176.537C55.4025 176.229 56.1632 176.075 57.0312 176.075C57.7125 176.075 58.2959 176.163 58.7812 176.341C59.2759 176.509 59.6865 176.728 60.0132 176.999C60.3492 177.269 60.6152 177.559 60.8112 177.867C61.0165 178.165 61.1705 178.45 61.2732 178.721C61.3759 178.991 61.4459 179.215 61.4832 179.393C61.5205 179.561 61.5392 179.645 61.5392 179.645H59.6352C59.6352 179.645 59.6165 179.584 59.5792 179.463C59.5512 179.332 59.4859 179.173 59.3832 178.987C59.2805 178.8 59.1312 178.613 58.9352 178.427C58.7485 178.24 58.5012 178.086 58.1932 177.965C57.8852 177.834 57.5025 177.769 57.0452 177.769C56.4945 177.769 56.0139 177.871 55.6032 178.077C55.2019 178.282 54.8659 178.557 54.5952 178.903C54.3245 179.248 54.1239 179.635 53.9932 180.065C53.8625 180.494 53.7972 180.933 53.7972 181.381C53.7972 181.987 53.9185 182.571 54.1612 183.131C54.4039 183.691 54.7632 184.148 55.2392 184.503C55.7245 184.857 56.3219 185.035 57.0312 185.035C57.8525 185.035 58.5012 184.811 58.9772 184.363C59.4625 183.915 59.7379 183.317 59.8032 182.571H56.9752V181.059H61.6512V181.829C61.6512 182.902 61.4459 183.803 61.0352 184.531C60.6245 185.249 60.0645 185.795 59.3552 186.169C58.6552 186.533 57.8665 186.715 56.9892 186.715ZM66.9164 186.715C66.2817 186.715 65.7311 186.607 65.2644 186.393C64.8071 186.169 64.4244 185.875 64.1164 185.511C63.8177 185.137 63.5937 184.722 63.4444 184.265C63.2951 183.807 63.2204 183.341 63.2204 182.865C63.2204 182.389 63.2904 181.927 63.4304 181.479C63.5797 181.021 63.7991 180.606 64.0884 180.233C64.3871 179.859 64.7651 179.565 65.2224 179.351C65.6797 179.127 66.2211 179.015 66.8464 179.015C67.5184 179.015 68.1111 179.164 68.6244 179.463C69.1377 179.761 69.5391 180.2 69.8284 180.779C70.1177 181.348 70.2624 182.057 70.2624 182.907V183.383H65.0964C65.1244 183.887 65.2971 184.325 65.6144 184.699C65.9317 185.063 66.3657 185.245 66.9164 185.245C67.2337 185.245 67.4951 185.193 67.7004 185.091C67.9057 184.988 68.0644 184.871 68.1764 184.741C68.2884 184.601 68.3677 184.484 68.4144 184.391C68.4611 184.288 68.4844 184.237 68.4844 184.237H70.2064C70.2064 184.237 70.1831 184.321 70.1364 184.489C70.0897 184.647 70.0011 184.853 69.8704 185.105C69.7491 185.347 69.5671 185.595 69.3244 185.847C69.0817 186.089 68.7644 186.295 68.3724 186.463C67.9804 186.631 67.4951 186.715 66.9164 186.715ZM65.0964 182.165H68.4704C68.4424 181.586 68.2697 181.157 67.9524 180.877C67.6351 180.597 67.2617 180.457 66.8324 180.457C66.3564 180.457 65.9597 180.611 65.6424 180.919C65.3251 181.217 65.1431 181.633 65.0964 182.165ZM75.3103 186.715C74.8063 186.715 74.3909 186.64 74.0643 186.491C73.7376 186.341 73.4809 186.145 73.2943 185.903C73.1169 185.66 72.9909 185.394 72.9163 185.105C72.8416 184.815 72.8043 184.531 72.8043 184.251V180.653H71.5303V179.155H72.8043V177.307H74.6663V179.155H76.3323V180.653H74.6663V184.209C74.6663 184.871 75.0396 185.203 75.7863 185.203C75.9636 185.203 76.1269 185.193 76.2763 185.175C76.4349 185.147 76.5143 185.133 76.5143 185.133V186.589C76.5143 186.589 76.3929 186.607 76.1503 186.645C75.9169 186.691 75.6369 186.715 75.3103 186.715Z" fill="white"/>
<rect x="193" y="-8" width="310" height="322"/>
</g>
</g>
<defs>
<filter id="filter0_d_127_17926" x="0" y="0" width="428" height="239" filterUnits="userSpaceOnUse" color-interpolation-filters="sRGB">
<feFlood flood-opacity="0" result="BackgroundImageFix"/>
<feColorMatrix in="SourceAlpha" type="matrix" values="0 0 0 0 0 0 0 0 0 0 0 0 0 0 0 0 0 0 127 0" result="hardAlpha"/>
<feOffset dy="7"/>
<feGaussianBlur stdDeviation="7.5"/>
<feComposite in2="hardAlpha" operator="out"/>
<feColorMatrix type="matrix" values="0 0 0 0 0 0 0 0 0 0 0 0 0 0 0 0 0 0 0.14 0"/>
<feBlend mode="normal" in2="BackgroundImageFix" result="effect1_dropShadow_127_17926"/>
<feBlend mode="normal" in="SourceGraphic" in2="effect1_dropShadow_127_17926" result="shape"/>
</filter>
<linearGradient id="paint0_linear_127_17926" x1="92.7574" y1="54" x2="332.096" y2="143.249" gradientUnits="userSpaceOnUse">
<stop offset="0.0001" stop-color="#1B1802"/>
<stop offset="0.796875" stop-color="#3C3C3C"/>
</linearGradient>
<clipPath id="clip0_127_17926">
<rect x="15" y="8" width="398" height="209" rx="20" fill="white"/>
</clipPath>
</defs>
</svg>
