<svg width="119" height="26" viewBox="0 0 119 26" fill="none" xmlns="http://www.w3.org/2000/svg">
<rect width="119" height="26" rx="13" fill="#FCA119"/>
<path d="M10.864 17V8.12H14.368C15.08 8.12 15.672 8.264 16.144 8.552C16.616 8.832 16.968 9.2 17.2 9.656C17.44 10.104 17.56 10.572 17.56 11.06C17.56 11.548 17.44 12.02 17.2 12.476C16.968 12.924 16.616 13.292 16.144 13.58C15.672 13.868 15.08 14.012 14.368 14.012H12.496V17H10.864ZM14.356 9.536H12.496V12.596H14.356C14.708 12.596 15 12.524 15.232 12.38C15.464 12.228 15.636 12.036 15.748 11.804C15.868 11.564 15.928 11.32 15.928 11.072C15.928 10.816 15.868 10.572 15.748 10.34C15.636 10.108 15.464 9.916 15.232 9.764C15 9.612 14.708 9.536 14.356 9.536ZM18.7479 17V10.64H20.3319V11.516H20.3919C20.5039 11.268 20.6879 11.04 20.9439 10.832C21.1999 10.624 21.5839 10.52 22.0959 10.52C22.2559 10.52 22.3879 10.532 22.4919 10.556C22.5959 10.572 22.6479 10.58 22.6479 10.58V12.128C22.6479 12.128 22.5879 12.12 22.4679 12.104C22.3559 12.088 22.2159 12.08 22.0479 12.08C21.4879 12.08 21.0639 12.236 20.7759 12.548C20.4879 12.86 20.3439 13.364 20.3439 14.06V17H18.7479ZM26.5683 17.12C25.8723 17.12 25.2803 16.964 24.7923 16.652C24.3043 16.34 23.9323 15.936 23.6763 15.44C23.4283 14.936 23.3043 14.396 23.3043 13.82C23.3043 13.244 23.4283 12.708 23.6763 12.212C23.9323 11.708 24.3043 11.3 24.7923 10.988C25.2803 10.676 25.8723 10.52 26.5683 10.52C27.2723 10.52 27.8643 10.676 28.3443 10.988C28.8323 11.3 29.2003 11.708 29.4483 12.212C29.7043 12.708 29.8323 13.244 29.8323 13.82C29.8323 14.396 29.7043 14.936 29.4483 15.44C29.2003 15.936 28.8323 16.34 28.3443 16.652C27.8643 16.964 27.2723 17.12 26.5683 17.12ZM26.5683 15.788C26.9283 15.788 27.2283 15.696 27.4683 15.512C27.7163 15.328 27.9043 15.088 28.0323 14.792C28.1603 14.488 28.2243 14.164 28.2243 13.82C28.2243 13.468 28.1603 13.144 28.0323 12.848C27.9043 12.552 27.7163 12.312 27.4683 12.128C27.2283 11.944 26.9283 11.852 26.5683 11.852C26.2163 11.852 25.9163 11.944 25.6683 12.128C25.4203 12.312 25.2323 12.552 25.1043 12.848C24.9763 13.144 24.9123 13.468 24.9123 13.82C24.9123 14.164 24.9763 14.488 25.1043 14.792C25.2323 15.088 25.4203 15.328 25.6683 15.512C25.9163 15.696 26.2163 15.788 26.5683 15.788ZM31.1815 17V10.64H32.7775V11.528H32.8375C32.9175 11.384 33.0295 11.236 33.1735 11.084C33.3175 10.924 33.5015 10.792 33.7255 10.688C33.9575 10.576 34.2415 10.52 34.5775 10.52C35.0495 10.52 35.4375 10.632 35.7415 10.856C36.0455 11.08 36.2695 11.368 36.4135 11.72H36.4375C36.5975 11.416 36.8335 11.14 37.1455 10.892C37.4655 10.644 37.8895 10.52 38.4175 10.52C38.8655 10.52 39.2375 10.624 39.5335 10.832C39.8375 11.032 40.0615 11.304 40.2055 11.648C40.3575 11.992 40.4335 12.364 40.4335 12.764V17H38.8375V13.1C38.8375 12.732 38.7455 12.432 38.5615 12.2C38.3855 11.96 38.1215 11.84 37.7695 11.84C37.4895 11.84 37.2615 11.916 37.0855 12.068C36.9175 12.212 36.7935 12.396 36.7135 12.62C36.6415 12.844 36.6055 13.072 36.6055 13.304V17H35.0095V13.1C35.0095 12.732 34.9215 12.432 34.7455 12.2C34.5695 11.96 34.3015 11.84 33.9415 11.84C33.6615 11.84 33.4335 11.916 33.2575 12.068C33.0895 12.212 32.9655 12.4 32.8855 12.632C32.8135 12.856 32.7775 13.08 32.7775 13.304V17H31.1815ZM45.037 17.12C44.341 17.12 43.749 16.964 43.261 16.652C42.773 16.34 42.401 15.936 42.145 15.44C41.897 14.936 41.773 14.396 41.773 13.82C41.773 13.244 41.897 12.708 42.145 12.212C42.401 11.708 42.773 11.3 43.261 10.988C43.749 10.676 44.341 10.52 45.037 10.52C45.741 10.52 46.333 10.676 46.813 10.988C47.301 11.3 47.669 11.708 47.917 12.212C48.173 12.708 48.301 13.244 48.301 13.82C48.301 14.396 48.173 14.936 47.917 15.44C47.669 15.936 47.301 16.34 46.813 16.652C46.333 16.964 45.741 17.12 45.037 17.12ZM45.037 15.788C45.397 15.788 45.697 15.696 45.937 15.512C46.185 15.328 46.373 15.088 46.501 14.792C46.629 14.488 46.693 14.164 46.693 13.82C46.693 13.468 46.629 13.144 46.501 12.848C46.373 12.552 46.185 12.312 45.937 12.128C45.697 11.944 45.397 11.852 45.037 11.852C44.685 11.852 44.385 11.944 44.137 12.128C43.889 12.312 43.701 12.552 43.573 12.848C43.445 13.144 43.381 13.468 43.381 13.82C43.381 14.164 43.445 14.488 43.573 14.792C43.701 15.088 43.889 15.328 44.137 15.512C44.385 15.696 44.685 15.788 45.037 15.788ZM52.5828 17V8.12H58.5348V9.536H54.2148V11.792H57.9948V13.172H54.2148V15.584H58.5948V17H52.5828ZM59.8162 17L61.7962 13.832L59.8042 10.64H61.4842L62.8642 12.872L64.2682 10.64H65.9362L63.8962 13.832L65.9362 17H64.2562L62.8642 14.768L61.4842 17H59.8162ZM69.9039 17.12C69.3599 17.12 68.8839 17.028 68.4759 16.844C68.0679 16.652 67.7279 16.4 67.4559 16.088C67.1839 15.768 66.9799 15.412 66.8439 15.02C66.7159 14.628 66.6519 14.228 66.6519 13.82C66.6519 13.412 66.7159 13.012 66.8439 12.62C66.9799 12.228 67.1799 11.876 67.4439 11.564C67.7159 11.244 68.0559 10.992 68.4639 10.808C68.8719 10.616 69.3519 10.52 69.9039 10.52C70.4479 10.52 70.8999 10.6 71.2599 10.76C71.6199 10.92 71.9039 11.12 72.1119 11.36C72.3279 11.6 72.4879 11.84 72.5919 12.08C72.6959 12.312 72.7639 12.508 72.7959 12.668C72.8279 12.828 72.8439 12.908 72.8439 12.908H71.3439C71.3439 12.908 71.3279 12.856 71.2959 12.752C71.2639 12.64 71.1999 12.512 71.1039 12.368C71.0079 12.224 70.8639 12.096 70.6719 11.984C70.4879 11.872 70.2399 11.816 69.9279 11.816C69.5599 11.816 69.2479 11.912 68.9919 12.104C68.7439 12.288 68.5559 12.532 68.4279 12.836C68.2999 13.14 68.2359 13.468 68.2359 13.82C68.2359 14.172 68.2999 14.5 68.4279 14.804C68.5559 15.108 68.7439 15.356 68.9919 15.548C69.2479 15.732 69.5599 15.824 69.9279 15.824C70.2399 15.824 70.4879 15.768 70.6719 15.656C70.8639 15.544 71.0079 15.416 71.1039 15.272C71.1999 15.128 71.2639 15.004 71.2959 14.9C71.3279 14.788 71.3439 14.732 71.3439 14.732H72.8439C72.8439 14.732 72.8279 14.812 72.7959 14.972C72.7639 15.132 72.6959 15.332 72.5919 15.572C72.4879 15.804 72.3279 16.04 72.1119 16.28C71.9039 16.52 71.6199 16.72 71.2599 16.88C70.8999 17.04 70.4479 17.12 69.9039 17.12ZM74.3562 17L74.3682 7.88H75.9522V17H74.3562ZM79.5803 17.12C78.9163 17.12 78.4123 16.916 78.0683 16.508C77.7323 16.1 77.5643 15.576 77.5643 14.936V10.64H79.1483V14.672C79.1483 15.016 79.2403 15.292 79.4243 15.5C79.6083 15.7 79.8683 15.8 80.2043 15.8C80.5003 15.8 80.7403 15.724 80.9243 15.572C81.1083 15.42 81.2403 15.224 81.3203 14.984C81.4083 14.744 81.4523 14.496 81.4523 14.24V10.64H83.0483V17H81.4523V16.088H81.3803C81.3003 16.232 81.1843 16.384 81.0323 16.544C80.8883 16.704 80.6963 16.84 80.4563 16.952C80.2243 17.064 79.9323 17.12 79.5803 17.12ZM87.105 17.12C86.585 17.12 86.157 17.052 85.821 16.916C85.485 16.772 85.217 16.596 85.017 16.388C84.825 16.172 84.681 15.96 84.585 15.752C84.489 15.544 84.425 15.372 84.393 15.236C84.369 15.092 84.357 15.02 84.357 15.02H85.869C85.869 15.02 85.881 15.064 85.905 15.152C85.937 15.24 85.993 15.344 86.073 15.464C86.161 15.576 86.293 15.676 86.469 15.764C86.645 15.852 86.877 15.896 87.165 15.896C87.509 15.896 87.757 15.824 87.909 15.68C88.061 15.528 88.137 15.36 88.137 15.176C88.137 15 88.069 14.86 87.933 14.756C87.805 14.644 87.613 14.56 87.357 14.504L86.481 14.324C86.129 14.252 85.801 14.148 85.497 14.012C85.193 13.868 84.945 13.676 84.753 13.436C84.561 13.188 84.465 12.872 84.465 12.488C84.465 11.92 84.681 11.452 85.113 11.084C85.545 10.708 86.133 10.52 86.877 10.52C87.349 10.52 87.737 10.584 88.041 10.712C88.353 10.84 88.601 11 88.785 11.192C88.977 11.384 89.117 11.576 89.205 11.768C89.301 11.96 89.361 12.124 89.385 12.26C89.417 12.388 89.433 12.452 89.433 12.452H87.969C87.969 12.452 87.957 12.416 87.933 12.344C87.909 12.264 87.857 12.176 87.777 12.08C87.705 11.984 87.593 11.9 87.441 11.828C87.297 11.748 87.101 11.708 86.853 11.708C86.517 11.708 86.277 11.78 86.133 11.924C85.997 12.068 85.929 12.22 85.929 12.38C85.929 12.556 86.005 12.692 86.157 12.788C86.309 12.884 86.505 12.956 86.745 13.004L87.573 13.184C88.165 13.304 88.649 13.512 89.025 13.808C89.409 14.104 89.601 14.532 89.601 15.092C89.601 15.468 89.501 15.812 89.301 16.124C89.109 16.428 88.825 16.672 88.449 16.856C88.081 17.032 87.633 17.12 87.105 17.12ZM91.8251 9.656C91.5451 9.656 91.3131 9.564 91.1291 9.38C90.9531 9.196 90.8651 8.976 90.8651 8.72C90.8651 8.464 90.9531 8.244 91.1291 8.06C91.3131 7.876 91.5451 7.784 91.8251 7.784C92.1051 7.784 92.3371 7.876 92.5211 8.06C92.7051 8.244 92.7971 8.464 92.7971 8.72C92.7971 8.976 92.7051 9.196 92.5211 9.38C92.3371 9.564 92.1051 9.656 91.8251 9.656ZM91.0331 17V10.64H92.6291V17H91.0331ZM97.455 17.12C96.759 17.12 96.167 16.964 95.679 16.652C95.191 16.34 94.819 15.936 94.563 15.44C94.315 14.936 94.191 14.396 94.191 13.82C94.191 13.244 94.315 12.708 94.563 12.212C94.819 11.708 95.191 11.3 95.679 10.988C96.167 10.676 96.759 10.52 97.455 10.52C98.159 10.52 98.751 10.676 99.231 10.988C99.719 11.3 100.087 11.708 100.335 12.212C100.591 12.708 100.719 13.244 100.719 13.82C100.719 14.396 100.591 14.936 100.335 15.44C100.087 15.936 99.719 16.34 99.231 16.652C98.751 16.964 98.159 17.12 97.455 17.12ZM97.455 15.788C97.815 15.788 98.115 15.696 98.355 15.512C98.603 15.328 98.791 15.088 98.919 14.792C99.047 14.488 99.111 14.164 99.111 13.82C99.111 13.468 99.047 13.144 98.919 12.848C98.791 12.552 98.603 12.312 98.355 12.128C98.115 11.944 97.815 11.852 97.455 11.852C97.103 11.852 96.803 11.944 96.555 12.128C96.307 12.312 96.119 12.552 95.991 12.848C95.863 13.144 95.799 13.468 95.799 13.82C95.799 14.164 95.863 14.488 95.991 14.792C96.119 15.088 96.307 15.328 96.555 15.512C96.803 15.696 97.103 15.788 97.455 15.788ZM102.068 17V10.64H103.664V11.552H103.736C103.8 11.44 103.9 11.304 104.036 11.144C104.172 10.976 104.36 10.832 104.6 10.712C104.84 10.584 105.144 10.52 105.512 10.52C106 10.52 106.4 10.632 106.712 10.856C107.032 11.072 107.268 11.36 107.42 11.72C107.58 12.08 107.66 12.468 107.66 12.884V17H106.064V13.1C106.064 12.756 105.968 12.46 105.776 12.212C105.584 11.964 105.296 11.84 104.912 11.84C104.616 11.84 104.376 11.916 104.192 12.068C104.008 12.212 103.872 12.4 103.784 12.632C103.704 12.864 103.664 13.108 103.664 13.364V17H102.068Z" fill="white"/>
</svg>
