<svg width="48" height="48" viewBox="0 0 48 48" fill="none" xmlns="http://www.w3.org/2000/svg">
<path d="M30.5975 38.9816L15.8493 38.9812C14.492 38.978 13.3993 38.2613 13.0788 36.8761C12.932 36.242 13.1423 35.6242 13.2116 35.0011C13.3734 33.5461 12.9108 32.5994 12.5975 31.2888C12.4029 30.4747 12.3274 29.645 12.2211 28.8168C10.7255 30.5829 11.3631 33.078 9.5162 34.7451L9.145 35.0627C8.96402 35.2141 9.00386 35.2696 8.94396 35.4963L8.93153 35.5431C8.65202 36.7681 7.05845 38.0431 5.75706 38.0665C4.61967 38.0869 2.06053 37.4616 1.38497 36.421C0.864018 35.6186 1.33585 34.8568 1.57174 34.0501C1.72275 33.5336 1.61773 33.5988 1.53694 33.135C1.2693 31.5986 1.90359 29.5512 2.58877 28.1926L3.48035 26.4778C4.61392 24.2325 5.605 21.8081 6.24222 19.3689C6.50341 18.3693 6.62036 17.3284 7.07669 16.3902C7.98245 14.5281 10.2928 12.8812 12.178 11.9871C12.9792 11.607 13.828 11.3303 14.6172 10.9292L17.2268 9.56063C17.5488 9.4005 17.8874 9.20743 18.2278 9.09211L18.2578 9.08213C18.358 9.04772 18.4524 9.02527 18.557 9.0076C18.8309 8.98107 19.0604 9.10257 19.3023 9.21024L19.915 9.4741C22.1314 10.3932 24.9903 10.3623 27.2694 9.74808C27.8421 9.59377 28.3513 9.32415 28.8967 9.10557C29.469 8.87625 29.8631 9.14729 30.375 9.38152L33.3556 10.9081C33.9771 11.2189 34.6269 11.4302 35.2585 11.711C37.4769 12.6975 40.6216 14.7621 41.2328 17.1462L41.6709 19.0782C41.6954 19.1756 41.7005 19.2733 41.7341 19.369L42.1665 20.7892C42.395 21.5933 42.8259 22.7117 43.1522 23.4645C43.3315 23.878 43.5439 24.2985 43.6987 24.7206L44.9939 27.3715C45.5827 28.5491 46.0764 29.5309 46.3475 30.8283C46.4921 31.5199 46.586 32.7932 46.3501 33.485C46.2538 33.7672 46.3136 33.9353 46.4338 34.2194L46.6109 34.6934C46.7707 35.0696 46.9307 35.4952 46.8239 35.9052L46.814 35.9415C46.476 37.2319 43.717 38.0624 42.5946 38.0649C41.4317 38.0676 40.7756 37.7307 39.9543 36.9019C39.582 36.5262 39.1789 36.0641 39.0274 35.5431C38.9294 35.2061 39.056 35.1665 38.7401 34.9507C36.7942 33.6208 37.282 31.3396 36.2897 29.5544C36.1435 29.2913 35.9663 29.0658 35.7854 28.8272C35.7198 29.1286 35.7092 29.4416 35.6758 29.7479L35.485 30.9493C35.1634 32.504 34.4867 33.6374 34.8211 35.3668C35.0159 36.3747 35.0698 37.3518 34.2772 38.1458C33.5656 38.8587 32.9132 38.98 31.9775 38.9817L30.5975 38.9816ZM17.9811 10.7931L15.1019 12.3228C14.459 12.6354 13.777 12.8586 13.1278 13.1565C12.4877 13.4503 11.8875 13.835 11.2968 14.2164C11.3059 14.3721 11.3512 14.5354 11.3864 14.6873L11.8081 17.5363L11.8802 20.113C11.8809 20.4088 11.8817 20.7281 11.9472 21.0177L12.0839 21.6542C12.1626 21.9635 12.429 22.411 12.6913 22.5931L12.7757 22.6523C13.2935 22.1103 14.2985 20.1505 14.5805 19.2994L14.8273 18.4239C14.9235 18.0407 14.9815 17.5897 15.41 17.437L15.4446 17.4244C15.809 17.2964 16.0993 17.469 16.251 17.8009L16.2674 17.8348C16.6874 18.7618 14.7556 22.5965 13.9355 23.5326C13.6972 23.8046 13.6255 23.7157 13.6031 24.1069L13.5175 26.8008C13.523 27.1361 13.5483 27.654 13.5755 27.9842L13.7389 29.2237C13.8092 29.7817 13.8616 30.3462 13.9824 30.8967L14.1661 31.593C14.1737 31.6257 14.1843 31.6538 14.1955 31.6851L14.2657 31.9221C14.3497 32.1791 14.3897 32.4511 14.4691 32.7071C14.5438 32.9483 14.5168 33.2141 14.5893 33.4556L33.3928 33.445C33.453 32.7972 33.6349 32.1925 33.8234 31.5728C33.9409 31.1446 34.0498 30.7194 34.1247 30.2813L34.2563 29.3231C34.481 27.7347 34.5613 26.2013 34.4404 24.5974C34.3469 23.3577 34.4512 24.1292 33.8336 23.2329C32.9721 21.9826 32.0146 20.0402 31.7064 18.586C31.6691 18.4101 31.6025 18.2078 31.6241 18.0285C31.7079 17.3347 32.5629 17.1552 32.9318 17.7225C33.1553 18.0661 33.1802 18.6782 33.3291 19.0782L33.4244 19.3595C33.7791 20.2641 34.6189 21.9477 35.2291 22.6403C36.3314 21.7838 36.097 19.8753 36.1183 18.6446C36.1249 18.2683 36.1735 17.8838 36.208 17.5086L36.6845 14.2121C36.0519 13.7251 35.3171 13.3318 34.5848 13.0171L33.1428 12.4183L29.9576 10.7901C29.8676 10.9494 29.6523 11.9502 29.5588 12.2237C28.7115 14.7012 26.6478 16.4819 23.9817 16.481C21.1538 16.48 19.0206 14.4766 18.2918 11.8094L18.1412 11.208C18.1104 11.0678 18.0868 10.9094 18.0342 10.776L17.9811 10.7931ZM19.5296 10.8634C19.9722 13.1487 21.5607 14.9995 24.0499 15.0011C25.4668 15.002 26.6503 14.3911 27.4635 13.2067C27.776 12.7378 28.0168 12.2526 28.1976 11.7181L28.4631 10.8411C26.1782 11.8018 22.1433 11.9148 19.8317 10.9828L19.5296 10.8634ZM9.9956 15.079C8.70124 16.1535 8.25705 16.9831 7.91636 18.5704L7.56147 20.0566C7.24375 21.2065 6.81306 22.332 6.39766 23.4493L4.8947 26.8595C4.05634 28.4924 3.01909 30.0972 2.9673 31.9875L2.92876 32.9452C3.31304 33.2158 4.94491 33.8316 5.37194 33.9561C6.18555 34.2164 7.31421 34.3703 8.113 33.9537C9.48363 33.2389 9.52371 31.5448 9.88792 30.2381C10.2008 29.1156 10.9439 27.6796 12.023 27.1012L12.0486 27.088C12.0828 27.0311 12.0722 26.9542 12.073 26.8892L12.0904 24.846C12.1067 24.5495 12.1604 24.251 12.169 23.9565C10.8582 23.2013 10.5058 21.8022 10.4463 20.3673L10.434 18.2078C10.4009 17.4359 10.171 15.8835 9.9956 15.079ZM37.9916 15.129C37.7868 16.0278 37.604 17.5368 37.5684 18.4229L37.5124 20.1635C37.4635 21.651 37.293 23.03 35.9563 23.8982C35.8345 23.9773 35.8584 23.9459 35.8733 24.0907L35.9061 27.0525C35.9571 27.089 36.0063 27.12 36.0622 27.1485C36.9292 27.5909 37.67 28.8471 37.9473 29.7218L38.1921 30.5367C38.4334 31.2306 38.4429 31.9853 38.7383 32.672C39.4863 34.4102 41.085 34.3809 42.6981 33.9335C42.9855 33.8362 44.8612 33.1077 45.0346 32.9382L45.029 32.0747C45.0111 30.2311 44.0041 28.6394 43.2028 27.0435C42.0359 24.7196 41.0121 22.2495 40.347 19.7306C39.8029 17.6699 40.0417 16.9744 38.3918 15.4362C38.3029 15.3534 38.1196 15.1271 37.9916 15.129ZM2.92725 34.5433L2.59902 35.6007C3.26477 36.0822 4.90586 36.7991 5.78355 36.6505L6.05936 36.5683C6.22736 36.5127 6.37952 36.416 6.52614 36.3191C6.80931 36.1218 6.99283 35.8944 7.23602 35.6633C5.88466 35.6769 4.12672 35.2249 2.92725 34.5433ZM45.0088 34.5821L43.6405 35.1556C42.9455 35.4155 42.1488 35.6104 41.4022 35.6493C41.2173 35.659 40.9419 35.62 40.7706 35.6707C41.0113 35.9014 41.2214 36.1297 41.4891 36.3321C41.9656 36.6366 42.3547 36.6939 42.9185 36.6094C43.5336 36.5173 44.9315 36.0548 45.3911 35.5692C45.266 35.2535 45.2105 34.8918 45.0464 34.5953L45.0088 34.5821ZM14.6806 34.872C14.6484 35.3608 14.416 36.0165 14.4725 36.4827L14.4771 36.5233C14.5959 37.509 15.578 37.5161 16.3059 37.5165L32.2968 37.514C32.6253 37.5072 32.7859 37.451 33.0528 37.2681L33.0792 37.2481C33.8381 36.6645 33.3479 35.6669 33.2925 34.8758L14.6806 34.872Z" fill="black"/>
</svg>
