<svg width="48" height="48" viewBox="0 0 48 48" fill="none" xmlns="http://www.w3.org/2000/svg">
<path d="M35.9048 39.6802C35.7816 40.1294 35.3749 40.6972 34.8811 40.7497L34.8545 40.7518C34.4308 40.7883 33.9833 40.7612 33.5567 40.7612L14.238 40.7617C13.666 40.7617 13.0642 40.879 12.589 40.4842C12.3795 40.3101 12.1068 39.9162 12.093 39.6362L12.0823 33.0175C12.0942 32.6063 12.1742 32.1935 12.1949 31.78L12.3049 28.8093C12.3129 28.6252 12.346 28.448 12.3573 28.2656L12.6012 24.1837C12.6095 24.0656 12.6388 23.9526 12.6468 23.8342L12.683 22.8239C12.6939 22.5932 12.7251 22.3788 12.6991 22.1478C12.2101 22.5653 11.8763 23.1121 11.403 23.5351C10.305 24.5164 9.42554 23.7338 8.6229 22.8318L7.41755 21.4013C5.93232 19.5378 4.59849 17.1493 3.72742 14.9314C3.31143 13.8723 2.96238 12.9086 3.86009 11.9491C4.30936 11.4688 5.03982 11.238 5.62697 10.9831L7.01865 10.3172C9.58285 8.94325 11.4525 7.3773 14.4691 7.22852L15.7693 7.24202C15.9945 7.25369 16.2142 7.29639 16.4381 7.31463L17.2542 7.35259C17.4277 7.36103 17.5916 7.41602 17.7644 7.41672C18.8365 7.42103 19.1949 6.98359 19.8487 8.02698C21.7168 11.0089 25.4788 11.481 27.7251 8.60448C27.969 8.29211 28.1356 7.92719 28.3814 7.62044C28.7288 7.18684 29.0724 7.34434 29.5444 7.35559L30.8968 7.34767C31.1458 7.34116 31.4017 7.34481 31.6491 7.31683C35.1524 6.92078 36.8085 7.91622 39.8253 9.66034L42.6441 11.119C43.9103 11.6768 44.6978 11.948 44.6921 13.4456C44.6917 13.5556 44.6981 13.69 44.6636 13.7954L44.4833 14.3786C43.4298 17.4162 41.6101 20.2811 39.4952 22.6889C39.0405 23.2066 38.5785 23.824 37.8534 23.9364C36.6832 24.1179 36.1666 22.7976 35.2675 22.1385C35.2258 22.4074 35.2859 22.6638 35.3072 22.931L35.5386 26.5079C35.5488 26.6774 35.5914 26.8399 35.6006 27.0113L35.6307 28.1547C35.6368 28.2811 35.6632 28.4003 35.6706 28.5258L35.8127 32.3434C35.8163 32.5758 35.8537 32.8036 35.8609 33.0348L35.9048 39.6802ZM14.3679 8.6147C13.2024 8.67194 12.0358 9.03245 11.0286 9.62613L12.3176 13.8768C12.5562 14.6935 12.6852 15.5662 12.8551 16.3991L13.2559 19.0364C13.3336 19.4683 13.399 19.8483 13.6172 20.2423C14.0172 20.9649 14.0637 21.0114 14.0611 21.8755L13.9514 24.1015L13.5479 30.8249C13.5362 31.0401 13.4932 31.2479 13.4866 31.4646L13.4609 33.1979C13.4558 33.3552 13.4258 33.5089 13.4203 33.6662L13.4129 34.9014C13.4129 35.0316 13.386 35.2294 13.4267 35.3517L29.8162 35.3464C30.2735 35.3466 30.7535 35.2524 30.9572 35.777L30.9745 35.8126C31.1099 36.1098 30.9359 36.4465 30.7027 36.631L30.6804 36.6492C30.453 36.8316 29.3654 36.73 29.0471 36.7301L13.4221 36.735C13.3818 37.3786 13.3587 38.7447 13.428 39.3863L22.816 39.3897L34.5683 39.3881L34.5641 34.6378C34.5606 34.4246 34.5241 34.2156 34.5206 34.0024L34.4438 30.7798C34.4399 30.6577 34.4167 30.5373 34.4117 30.4152L34.2999 27.839C34.2898 27.6683 34.2546 27.502 34.2449 27.33L34.0659 24.6831C34.0275 24.1517 33.9626 23.5423 33.9494 23.0202L33.9302 22.22C33.8984 21.2074 33.7922 21.244 34.319 20.3434C34.7703 19.5719 34.7855 18.7363 34.9059 17.8708L35.2031 16.1051C35.529 14.457 35.9318 12.8336 36.4346 11.2302L36.9887 9.65538C35.7031 8.86553 34.2443 8.58817 32.7551 8.61841L31.7487 8.68038C31.2125 11.8385 28.4098 13.4011 25.7879 14.6483L24.609 15.1894C24.0947 15.4057 23.9774 15.4204 23.4808 15.2107L21.201 14.1588C19.1752 13.1402 16.5272 11.3062 16.3192 8.82691C16.3136 8.76105 16.3408 8.68075 16.2684 8.66519L14.3679 8.6147ZM18.645 8.70761C18.3378 8.75575 18.0421 8.79208 17.7301 8.78781C17.6743 8.85766 17.83 9.28853 17.8617 9.37469C18.5622 11.2758 20.5837 12.3488 22.2946 13.1872L24.003 13.9296C25.9432 13.1644 28.0392 12.17 29.418 10.5566C29.6976 10.1882 30.3255 9.20988 30.3389 8.7228L29.3525 8.6928C28.9958 9.12972 28.6986 9.61544 28.3109 10.031C27.105 11.3232 24.9408 12.2306 23.1502 11.8644C21.2004 11.4656 19.7216 10.3451 18.645 8.70761ZM9.82857 10.277L8.67146 10.9651C7.97311 11.3776 7.24261 11.8038 6.4861 12.1002C6.63193 12.4411 6.83157 12.7621 6.98494 13.1013C7.49869 14.2372 8.07854 15.3538 8.7218 16.4225L10.694 19.356L12.0428 20.9876L12.3899 20.697L12.2661 20.4327C12.0308 20.0089 11.9668 19.4541 11.8988 18.9798L11.4182 15.994C11.3041 15.4746 10.0226 10.3742 9.84455 10.2805L9.82857 10.277ZM38.1691 10.2893C37.9225 10.9252 37.7287 11.6129 37.5421 12.2692L36.6575 15.6442L36.0953 19.0075C36.0186 19.5995 35.924 20.1816 35.6412 20.7151L35.9817 20.9738L37.2994 19.3706L38.4862 17.7013C39.1341 16.7224 39.7336 15.6837 40.266 14.6373L41.4509 12.0632C40.6709 11.7525 38.9055 10.793 38.1691 10.2893ZM42.6702 12.6191C41.5844 15.3098 40.1633 17.8228 38.4233 20.1442C37.974 20.7436 37.5463 21.3487 36.99 21.8571C37.1458 22.0734 37.3738 22.4478 37.6298 22.5405L37.6849 22.5348C38.0483 22.3386 38.3736 21.8845 38.6467 21.5736C40.3515 19.633 42.4307 16.4087 43.1958 13.8598C43.4244 13.0979 43.4308 12.9667 42.6702 12.6191ZM5.28141 12.6638C4.81552 12.8909 4.54491 13.0834 4.70222 13.6192L4.72754 13.7037C4.75514 13.7926 4.77244 13.8819 4.80779 13.9684L4.97396 14.4139C5.06471 14.7161 5.23622 15.0629 5.37849 15.3421L6.30061 17.2034C6.94397 18.4493 7.75768 19.6227 8.62875 20.7173L9.43857 21.7089C9.7059 22.0081 9.97524 22.3671 10.3238 22.5739L10.3941 22.5473C10.6182 22.405 10.8241 22.1246 11.0084 21.9269C9.34824 20.0629 7.72805 17.5845 6.59386 15.3922L5.28141 12.6638Z" fill="black"/>
</svg>
