<svg width="48" height="48" viewBox="0 0 48 48" fill="none" xmlns="http://www.w3.org/2000/svg">
<path d="M25.3448 33.4211L24.0264 22.1773C23.9229 22.6331 23.9032 23.0517 23.8525 23.5157L23.302 28.354L21.8466 39.3747C21.8214 39.5626 21.8211 39.7537 21.7943 39.9415L21.1077 44.7594C20.9389 45.7611 21.1352 46.1639 19.8874 46.166L14.9333 46.1582C13.2556 46.0823 11.8912 45.2748 10.572 44.3302C9.67412 43.6873 9.55872 43.7963 9.6489 42.7142L9.78156 40.3737C9.78761 40.2702 9.81442 40.1737 9.8222 40.0734L9.96554 36.9808C9.97558 36.8192 10.0095 36.6643 10.0203 36.5033L10.1567 33.7112C10.1652 33.5599 10.1974 33.4153 10.2068 33.2637L10.5017 27.9489L10.6105 24.6906L10.7115 22.159L10.8179 20.8165C10.8351 20.5283 10.8251 20.2353 10.8257 19.9465L10.8293 4.31589C10.8287 3.59061 10.5125 1.95895 11.4033 1.78842L36.506 1.78418C36.6265 1.78689 36.7243 1.79707 36.8316 1.85601L36.8673 1.87705C36.9578 1.92955 37.0811 2.0433 37.1249 2.14006L37.135 2.1677C37.3082 2.55434 37.1946 3.64357 37.1947 4.11005L37.2013 21.0905C37.2061 21.3437 37.265 21.5833 37.2791 21.8318L37.3097 23.2549C37.3291 23.7108 37.3543 24.1689 37.3733 24.6302L37.4192 25.6806C37.4298 25.8605 37.4602 26.0401 37.4665 26.2199L37.5966 29.4504C37.6088 29.6386 37.6492 29.8223 37.6596 30.0114L37.6887 31.4124L37.8758 34.7492C37.8826 34.8707 37.9153 34.991 37.921 35.1084L37.9854 36.82C38.0301 37.5317 38.109 38.2416 38.1357 38.9564L38.164 40.1833C38.2018 40.7087 38.1973 41.4648 38.2749 41.9196L38.2805 41.9512C38.319 42.1832 38.313 42.4218 38.3298 42.656C38.3787 43.3355 38.4892 43.5329 37.8964 43.988L37.4928 44.3038C35.5409 45.7599 34.3446 46.1668 32.0091 46.1681L28.427 46.1687C27.3482 46.1686 27.1768 46.3036 26.9739 45.0529L26.1884 39.7754L25.3448 33.4211ZM13.5046 3.0958L12.6516 3.09939C12.4923 3.10011 12.3244 3.08959 12.1663 3.10838L12.1668 5.48115L15.8087 5.48275L16.8686 5.49883C17.1715 4.64255 17.089 4.01008 17.0788 3.11359L13.5046 3.0958ZM18.4336 3.0996L18.4477 3.89024C18.4482 4.15046 18.4542 4.41377 18.4024 4.66993L18.2785 5.48336L28.3636 5.48261C28.7234 5.48387 29.1224 5.45003 29.4786 5.48687L29.7327 5.49583C29.6117 4.68701 29.6004 3.91687 29.6012 3.09718L18.4336 3.0996ZM33.791 3.0958L30.9172 3.1108C30.913 3.89408 30.8309 4.759 31.1132 5.5008L33.075 5.48275L35.8471 5.49531L35.8388 3.11641L33.791 3.0958ZM12.175 6.8229L12.1637 8.68328C12.1637 8.99748 12.1367 9.34014 12.1735 9.65106C13.3453 9.67412 14.318 9.64276 15.2401 8.76808L15.2774 8.73151C15.7438 8.18059 15.9957 7.53025 16.1913 6.83809C15.7523 6.7884 15.2751 6.82286 14.832 6.82272L12.175 6.8229ZM17.6358 6.8222C17.4138 7.41901 17.235 8.04151 16.9569 8.61972C16.3956 9.78672 15.1613 10.7272 13.8677 10.9307C13.3131 11.0179 12.7262 10.9675 12.1649 10.9918L10.9657 42.977C13.2128 44.5602 13.7317 44.8172 16.6525 44.813C16.9667 44.813 19.7277 44.8354 19.7812 44.7927L20.7893 37.3823L22.7698 21.1278L23.1887 16.8181C23.2517 16.0947 23.3006 15.4025 23.2477 14.6716C23.2332 14.4719 23.1641 14.2949 23.1595 14.0912L23.1487 7.39248C23.1483 7.2932 23.1703 6.88698 23.1196 6.82623L17.6358 6.8222ZM24.4735 6.82304C24.4329 7.33154 24.4416 7.84248 24.4412 8.35337L24.442 12.2204C24.4423 12.5698 24.4289 12.9255 24.4626 13.2734C24.849 13.1743 25.1058 12.9851 25.3789 12.6995C25.7687 12.1676 25.889 11.8553 25.8945 11.2202L25.8956 6.82825L24.4735 6.82304ZM27.2424 6.82276L27.2221 11.0059C27.218 12.5535 26.619 13.974 25.0243 14.4997L24.6232 14.5982L25.1944 20.8122L27.0948 36.6794L28.2175 44.4489C28.2283 44.5796 28.2247 44.6892 28.2752 44.8142L32.6439 44.8137C33.2087 44.8137 33.6992 44.7552 34.2456 44.5838C35.2876 44.2234 36.1323 43.6517 37.0101 42.9917C37.0024 42.7539 36.9592 42.5256 36.9549 42.2834L36.847 39.7681L36.5898 35.4202C36.5521 34.6357 36.5055 33.8553 36.4741 33.0708L36.4082 32.2696L36.2222 28.7828L36.1951 27.3294L36.0249 24.3818L35.8824 21.3918L35.8702 11.6762C35.8695 11.4563 35.8912 11.2083 35.8585 10.9931C35.2147 10.915 34.6708 11.0231 34.0145 10.8713C32.1917 10.4499 31.2059 9.25145 30.6782 7.53883L30.5537 7.09333C30.5338 7.00844 30.523 6.8965 30.472 6.82497L27.2424 6.82276ZM31.8567 6.82192C31.97 7.16294 32.0621 7.5227 32.2102 7.85683C32.9272 9.47528 34.3022 9.67384 35.833 9.65565L35.8359 6.83673C35.4098 6.78573 34.939 6.82272 34.5083 6.82244L31.8567 6.82192Z" fill="black"/>
</svg>
