<svg width="15" height="15" viewBox="0 0 15 15" fill="none" xmlns="http://www.w3.org/2000/svg">
<path d="M8.58119 2.19365L9.68119 4.39365C9.83119 4.6999 10.2312 4.99365 10.5687 5.0499L12.5624 5.38115C13.8374 5.59365 14.1374 6.51865 13.2187 7.43115L11.6687 8.98115C11.4062 9.24365 11.2624 9.7499 11.3437 10.1124L11.7874 12.0312C12.1374 13.5499 11.3312 14.1374 9.98744 13.3437L8.11869 12.2374C7.78119 12.0374 7.22494 12.0374 6.88119 12.2374L5.01244 13.3437C3.67494 14.1374 2.86244 13.5437 3.21244 12.0312L3.65619 10.1124C3.73744 9.7499 3.59369 9.24365 3.33119 8.98115L1.78119 7.43115C0.868693 6.51865 1.16244 5.59365 2.43744 5.38115L4.43119 5.0499C4.76244 4.99365 5.16244 4.6999 5.31244 4.39365L6.41244 2.19365C7.01244 0.999902 7.98744 0.999902 8.58119 2.19365Z" fill="#FDBD5E"/>
</svg>
