<svg width="24" height="24" viewBox="0 0 24 24" fill="none" xmlns="http://www.w3.org/2000/svg">
<path opacity="0.4" d="M21.3 10.84C21.69 10.84 22 10.53 22 10.14V9.20999C22 5.10999 20.75 3.85999 16.65 3.85999H7.35C3.25 3.85999 2 5.10999 2 9.20999V9.67999C2 10.07 2.31 10.38 2.7 10.38C3.6 10.38 4.33 11.11 4.33 12.01C4.33 12.91 3.6 13.63 2.7 13.63C2.31 13.63 2 13.94 2 14.33V14.8C2 18.9 3.25 20.15 7.35 20.15H16.65C20.75 20.15 22 18.9 22 14.8C22 14.41 21.69 14.1 21.3 14.1C20.4 14.1 19.67 13.37 19.67 12.47C19.67 11.57 20.4 10.84 21.3 10.84Z" fill="#61AD4E"/>
<path d="M15.0001 15.88C14.4401 15.88 13.9901 15.43 13.9901 14.88C13.9901 14.33 14.4401 13.88 14.9901 13.88C15.5401 13.88 15.9901 14.33 15.9901 14.88C15.9901 15.43 15.5601 15.88 15.0001 15.88Z" fill="#457B37"/>
<path d="M9.00007 10.88C8.44007 10.88 7.99007 10.43 7.99007 9.88001C7.99007 9.33001 8.44007 8.88001 8.99007 8.88001C9.54007 8.88001 9.99007 9.33001 9.99007 9.88001C9.99007 10.43 9.56007 10.88 9.00007 10.88Z" fill="#457B37"/>
<path d="M8.63007 16.43C8.44007 16.43 8.25007 16.36 8.10007 16.21C7.81007 15.92 7.81007 15.44 8.10007 15.15L14.8301 8.42001C15.1201 8.13001 15.6001 8.13001 15.8901 8.42001C16.1801 8.71001 16.1801 9.19001 15.8901 9.48001L9.16007 16.21C9.02007 16.36 8.82007 16.43 8.63007 16.43Z" fill="#457B37"/>
</svg>
